<?xml version="1.0" encoding="UTF-8"?><svg xmlns="http://www.w3.org/2000/svg" viewBox="0 0 391 962.48"><defs><style>.d{fill:#f93;}.e{fill:#060;}</style></defs><g id="a"/><g id="b"><g id="c"><path class="e" d="M0,97.92c14.67-13.67,29.33-27.33,44-41,9.33,7.36,16.64,13.38,21,17,23.29,19.36,37.78,33.07,76,68,17.53,16.01,17.06,15.49,17.52,16,3.32,3.69,4.32,5.28,5.48,5,3.94-.95,.48-21.2,0-52-.29-18.79,.91-16.52,1-48,.06-22.91,.1-34.37,0-35-1.71-11.12-1.51-12.93,0-16,8.91-18.09,63.46-12.95,66-2,.3,1.3-.34,1.77-1,6-1.14,7.28,.18,12.85,0,16-.75,12.75,.36,14.84,1,36,.2,6.47,.67,22.76,0,41-1.17,31.98-4.92,44.65,0,47,4.74,2.27,13.3-7.09,21-15,28.91-29.69,64.6-51.95,96-79l43,35s-113.88,104.14-114,104c-.07-.08,38.99-36.01,39-36s-39,36-39,36c-8.81-3.19-20.98-7-35.82-9.84-4.51-.86-12.66-2.4-22.18-3.16-19.74-1.57-46.62-3.03-72,9-10.51,4.98-21.95,12.68-29,8-.47-.31-1.11-.93-1.72-1.57-4.93-5.21-4.97-12.06-5.28-14.43-1.16-8.73-13.65-12.07-28-21-14.6-9.09-9.39-9.4-35-29-14.38-11-19.02-13.2-30-23-8.02-7.16-14.09-13.61-18-18Z"/><g><path class="d" d="M309.67,206.86c-12.89-7.42-21.54-12.39-35.07-16.66-25.18-7.94-46.57-6.91-70.13-5.55-28.12,1.61-49.84,2.86-75.03,12.5-40.63,15.55-61.91,42.02-70.95,53.46-7.5,9.49-20.75,26.62-26.1,51.37-2.33,10.78-2.38,19.38-.82,42.35,3.3,48.61,6.52,68.73,6.52,68.73,25,156.1,39.14,226.32,39.14,226.32,25.02,124.19,33.9,154.05,43.22,181.2,11.5,33.46,22.51,62.88,37.51,93.03,0,0,6.44,12.94,22.83,32.63,5.44,6.53,11.34,12.89,21.2,15.27,1.95,.47,8.31,1.93,15.49,0,7.21-1.94,11.41-6.27,14.68-9.72,14-14.79,21-22.18,22.83-24.99,41.52-63.44,79.1-245.07,79.1-245.07,16.54-79.95,19.59-87.33,27.73-135.38,11.09-65.49,8.09-72.79,17.13-124.96,3.9-22.52,7.01-35.87,9.79-61.79,3.23-30.21,2.14-41.45,1.63-45.82-1.54-13.27-4.05-35.01-19.57-57.62-15.99-23.29-37.74-35.81-61.16-49.29Z"/><path class="d" d="M309.67,206.86c-12.89-7.42-21.54-12.39-35.07-16.66-25.18-7.94-46.57-6.91-70.13-5.55-28.12,1.61-49.84,2.86-75.03,12.5-40.63,15.55-61.91,42.02-70.95,53.46-7.5,9.49-20.75,26.62-26.1,51.37-2.33,10.78-2.38,19.38-.82,42.35,3.3,48.61,6.52,68.73,6.52,68.73,25,156.1,39.14,226.32,39.14,226.32,25.02,124.19,33.9,154.05,43.22,181.2,11.5,33.46,22.51,62.88,37.51,93.03,0,0,6.44,12.94,22.83,32.63,5.44,6.53,11.34,12.89,21.2,15.27,1.95,.47,8.31,1.93,15.49,0,7.21-1.94,11.41-6.27,14.68-9.72,14-14.79,21-22.18,22.83-24.99,41.52-63.44,79.1-245.07,79.1-245.07,16.54-79.95,19.59-87.33,27.73-135.38,11.09-65.49,8.09-72.79,17.13-124.96,3.9-22.52,7.01-35.87,9.79-61.79,3.23-30.21,2.14-41.45,1.63-45.82-1.54-13.27-4.05-35.01-19.57-57.62-15.99-23.29-37.74-35.81-61.16-49.29Z"/><path class="d" d="M309.67,206.86c-12.89-7.42-21.54-12.39-35.07-16.66-25.18-7.94-46.57-6.91-70.13-5.55-28.12,1.61-49.84,2.86-75.03,12.5-40.63,15.55-61.91,42.02-70.95,53.46-7.5,9.49-20.75,26.62-26.1,51.37-2.33,10.78-2.38,19.38-.82,42.35,3.3,48.61,6.52,68.73,6.52,68.73,25,156.1,39.14,226.32,39.14,226.32,25.02,124.19,33.9,154.05,43.22,181.2,11.5,33.46,22.51,62.88,37.51,93.03,0,0,6.44,12.94,22.83,32.63,5.44,6.53,11.34,12.89,21.2,15.27,1.95,.47,8.31,1.93,15.49,0,7.21-1.94,11.41-6.27,14.68-9.72,14-14.79,21-22.18,22.83-24.99,41.52-63.44,79.1-245.07,79.1-245.07,16.54-79.95,19.59-87.33,27.73-135.38,11.09-65.49,8.09-72.79,17.13-124.96,3.9-22.52,7.01-35.87,9.79-61.79,3.23-30.21,2.14-41.45,1.63-45.82-1.54-13.27-4.05-35.01-19.57-57.62-15.99-23.29-37.74-35.81-61.16-49.29Z"/><path class="d" d="M309.67,206.86c-12.89-7.42-21.54-12.39-35.07-16.66-25.18-7.94-46.57-6.91-70.13-5.55-28.12,1.61-49.84,2.86-75.03,12.5-40.63,15.55-61.91,42.02-70.95,53.46-7.5,9.49-20.75,26.62-26.1,51.37-2.33,10.78-2.38,19.38-.82,42.35,3.3,48.61,6.52,68.73,6.52,68.73,25,156.1,39.14,226.32,39.14,226.32,25.02,124.19,33.9,154.05,43.22,181.2,11.5,33.46,22.51,62.88,37.51,93.03,0,0,6.44,12.94,22.83,32.63,5.44,6.53,11.34,12.89,21.2,15.27,1.95,.47,8.31,1.93,15.49,0,7.21-1.94,11.41-6.27,14.68-9.72,14-14.79,21-22.18,22.83-24.99,41.52-63.44,79.1-245.07,79.1-245.07,16.54-79.95,19.59-87.33,27.73-135.38,11.09-65.49,8.09-72.79,17.13-124.96,3.9-22.52,7.01-35.87,9.79-61.79,3.23-30.21,2.14-41.45,1.63-45.82-1.54-13.27-4.05-35.01-19.57-57.62-15.99-23.29-37.74-35.81-61.16-49.29Z"/><path class="d" d="M309.67,206.86c-12.89-7.42-21.54-12.39-35.07-16.66-25.18-7.94-46.57-6.91-70.13-5.55-28.12,1.61-49.84,2.86-75.03,12.5-40.63,15.55-61.91,42.02-70.95,53.46-7.5,9.49-20.75,26.62-26.1,51.37-2.33,10.78-2.38,19.38-.82,42.35,3.3,48.61,6.52,68.73,6.52,68.73,25,156.1,39.14,226.32,39.14,226.32,25.02,124.19,33.9,154.05,43.22,181.2,11.5,33.46,22.51,62.88,37.51,93.03,0,0,6.44,12.94,22.83,32.63,5.44,6.53,11.34,12.89,21.2,15.27,1.95,.47,8.31,1.93,15.49,0,7.21-1.94,11.41-6.27,14.68-9.72,14-14.79,21-22.18,22.83-24.99,41.52-63.44,79.1-245.07,79.1-245.07,16.54-79.95,19.59-87.33,27.73-135.38,11.09-65.49,8.09-72.79,17.13-124.96,3.9-22.52,7.01-35.87,9.79-61.79,3.23-30.21,2.14-41.45,1.63-45.82-1.54-13.27-4.05-35.01-19.57-57.62-15.99-23.29-37.74-35.81-61.16-49.29Z"/><path class="d" d="M309.67,206.86c-12.89-7.42-21.54-12.39-35.07-16.66-25.18-7.94-46.57-6.91-70.13-5.55-28.12,1.61-49.84,2.86-75.03,12.5-40.63,15.55-61.91,42.02-70.95,53.46-7.5,9.49-20.75,26.62-26.1,51.37-2.33,10.78-2.38,19.38-.82,42.35,3.3,48.61,6.52,68.73,6.52,68.73,25,156.1,39.14,226.32,39.14,226.32,25.02,124.19,33.9,154.05,43.22,181.2,11.5,33.46,22.51,62.88,37.51,93.03,0,0,6.44,12.94,22.83,32.63,5.44,6.53,11.34,12.89,21.2,15.27,1.95,.47,8.31,1.93,15.49,0,7.21-1.94,11.41-6.27,14.68-9.72,14-14.79,21-22.18,22.83-24.99,41.52-63.44,79.1-245.07,79.1-245.07,16.54-79.95,19.59-87.33,27.73-135.38,11.09-65.49,8.09-72.79,17.13-124.96,3.9-22.52,7.01-35.87,9.79-61.79,3.23-30.21,2.14-41.45,1.63-45.82-1.54-13.27-4.05-35.01-19.57-57.62-15.99-23.29-37.74-35.81-61.16-49.29Z"/></g></g></g></svg>