<?xml version="1.0" encoding="UTF-8"?><svg id="a" xmlns="http://www.w3.org/2000/svg" viewBox="0 0 757.99 685.02"><defs><style>.b{fill:#c33;}</style></defs><path class="b" d="M36.47,83.12c8.9-12.87,16.61-20.85,20.12-24.35,2.62-2.6,11.2-10.96,24.55-20.13,9.52-6.53,32.31-21.86,66.73-30.41,9.18-2.28,34.24-7.81,66.84-5.19,38.01,3.05,65.68,15.53,77.76,21.64,26.57,13.44,43.44,29.34,50.02,35.93,23.85,23.88,35.86,49.01,35.7,49.11,0,0,0,0-.69-.63,2.32-2.68,5.69-6.68,9.55-11.69,10.44-13.57,14.1-21.1,19.55-28.57,7.64-10.46,15.46-16.2,28.19-25.54,16.44-12.06,42.43-31.13,81.39-39.39,39.14-8.3,70.81-1.33,85.94,2.16,22.16,5.12,70.1,19.92,108.22,62.76,7.5,8.43,27.96,32.94,39.56,70.55,2.02,6.56,10.71,36,7.28,75.75-5,57.9-32.36,98.94-47.29,120.76-19.9,29.1-40.94,48.89-78.21,83.97-10.76,10.13-22.94,20.89-47.29,42.42-24.59,21.74-43.72,38.27-64.11,55.84-98.76,85.09-136.15,116.03-139.6,151.49-.12,1.21-1.44,15.2-4.55,15.4-4.23,.27-4.96-25.45-23.65-52.19-3.72-5.32-6.96-8.99-11.82-14.28-37.02-40.34-59.57-60.16-59.57-60.16-42.51-37.39-67.73-56.08-110.5-92.56-54.97-46.9-79.7-72.66-95.49-90.1-37.51-41.43-47.67-61.38-52.29-71.42C6.85,269.61,3.71,237.96,1.91,218.16c-1.98-21.83-3.58-39.38,1.36-62.76,7.39-34.98,24.46-59.65,33.19-72.28Z"/></svg>