<svg xmlns="http://www.w3.org/2000/svg" xmlns:xlink="http://www.w3.org/1999/xlink" width="140" height="148" viewBox="0 0 140 148">
  <defs>
    <filter id="Ellipse_1" x="0" y="0" width="140" height="148" filterUnits="userSpaceOnUse">
      <feOffset dx="3" dy="3" input="SourceAlpha"/>
      <feGaussianBlur stdDeviation="3" result="blur"/>
      <feFlood flood-opacity="0.161"/>
      <feComposite operator="in" in2="blur"/>
      <feComposite in="SourceGraphic"/>
    </filter>
  </defs>
  <g id="Group_7" data-name="Group 7" transform="translate(-165 -302)">
    <g id="Group_1" data-name="Group 1" transform="translate(-765)">
      <g transform="matrix(1, 0, 0, 1, 930, 302)" filter="url(#Ellipse_1)">
        <g id="Ellipse_1-2" data-name="Ellipse 1" transform="translate(6 6)" fill="#35d823" stroke="#191616" stroke-width="5">
          <ellipse cx="61" cy="65" rx="61" ry="65" stroke="none"/>
          <ellipse cx="61" cy="65" rx="58.5" ry="62.5" fill="none"/>
        </g>
      </g>
      <g id="Polygon_1" data-name="Polygon 1" transform="matrix(-0.035, 0.999, -0.999, -0.035, 1064.275, 342.799)" fill="#0a0909">
        <path d="M 55.03176498413086 101.3652725219727 L 16.96823310852051 101.3652725219727 C 15.04233360290527 101.3652725219727 13.22082233428955 100.9135284423828 11.55427742004395 100.022590637207 C 9.989100456237793 99.18584442138672 8.614455223083496 97.96961212158203 7.57895565032959 96.50540161132812 C 6.543455600738525 95.04118347167969 5.854788780212402 93.33983612060547 5.58738899230957 91.58528900146484 C 5.302677631378174 89.71712493896484 5.483699798583984 87.84918212890625 6.125433444976807 86.03334808349609 L 25.15719985961914 32.18123626708984 C 26.01024436950684 29.76746940612793 27.53233337402344 27.77864837646484 29.55893325805664 26.42975807189941 C 31.44273376464844 25.1759147644043 33.67002105712891 24.51317024230957 36 24.51317024230957 C 38.32997894287109 24.51317024230957 40.55726623535156 25.1759147644043 42.44106674194336 26.42975807189941 C 44.46766662597656 27.77864837646484 45.98975372314453 29.76746940612793 46.84280014038086 32.18122482299805 L 65.87456512451172 86.03334808349609 C 66.51629638671875 87.84918212890625 66.69731903076172 89.71712493896484 66.41261291503906 91.58528900146484 C 66.14522552490234 93.33985137939453 65.45654296875 95.04119110107422 64.42104339599609 96.50540161132812 C 63.38555526733398 97.96962738037109 62.01089859008789 99.18584442138672 60.44572067260742 100.022590637207 C 58.77919006347656 100.9135284423828 56.95766830444336 101.3652725219727 55.03176498413086 101.3652725219727 Z" stroke="none"/>
        <path d="M 36 25.01316070556641 C 33.7689208984375 25.01316070556641 31.63743209838867 25.64693450927734 29.83596801757812 26.84599304199219 C 27.90018844604492 28.13442230224609 26.4453125 30.03693389892578 25.62863159179688 32.34783935546875 L 6.596870422363281 86.19993591308594 C 5.982818603515625 87.93740844726562 5.809501647949219 89.72395324707031 6.081680297851562 91.50995635986328 C 6.337425231933594 93.18805694580078 6.996330261230469 94.81562805175781 7.987174987792969 96.21669006347656 C 8.978023529052734 97.61776733398438 10.29302215576172 98.78134918212891 11.79001235961914 99.58163452148438 C 13.38324356079102 100.4333953857422 15.12545394897461 100.8652572631836 16.96823501586914 100.8652572631836 L 55.03175354003906 100.8652572631836 C 56.87453460693359 100.8652572631836 58.61674499511719 100.4333801269531 60.20998764038086 99.58163452148438 C 61.70697784423828 98.78134918212891 63.02196502685547 97.61776733398438 64.01282501220703 96.21669006347656 C 65.00366973876953 94.81561279296875 65.66257476806641 93.18804931640625 65.91831970214844 91.50994873046875 C 66.19049835205078 89.72395324707031 66.01718139648438 87.93740844726562 65.40313720703125 86.19993591308594 L 46.37136840820312 32.34783935546875 C 45.55467987060547 30.03693389892578 44.09980010986328 28.13442230224609 42.16403198242188 26.84599304199219 C 40.36255645751953 25.64693450927734 38.2310791015625 25.01316070556641 36 25.01316070556641 M 36 24.01316070556641 C 40.71451950073242 24.01316070556641 45.42903900146484 26.68031311035156 47.31422424316406 32.01462554931641 L 66.34598541259766 85.86672973632812 C 69.10549926757812 93.67501831054688 63.31331253051758 101.8652572631836 55.03175354003906 101.8652572631836 L 16.96823501586914 101.8652572631836 C 8.686676025390625 101.8652572631836 2.894500732421875 93.67501831054688 5.654014587402344 85.86672973632812 L 24.6857795715332 32.01462554931641 C 26.57096099853516 26.68031311035156 31.28548049926758 24.01316070556641 36 24.01316070556641 Z" stroke="none" fill="#0b0a0a"/>
      </g>
    </g>
  </g>
</svg>
