<?xml version="1.0" encoding="UTF-8"?>
<svg xmlns="http://www.w3.org/2000/svg" viewBox="0 0 213.17 302.7">
  <defs>
    <style>
      .cls-1 {
        fill: #f0849c;
      }

      .cls-2 {
        fill: #ea4c65;
      }

      .cls-3 {
        fill: #e7b1ca;
      }

      .cls-4 {
        fill: #ededed;
      }

      .cls-5 {
        fill: #fff;
      }

      .cls-6 {
        fill: #efeeee;
      }

      .cls-7 {
        fill: #e0e0e0;
      }

      .cls-8 {
        fill: #1d1d1b;
      }

      .cls-9 {
        fill: none;
        stroke: #1d1d1b;
        stroke-miterlimit: 10;
        stroke-width: .5px;
      }
    </style>
  </defs>
  <g id="Livello_1" data-name="Livello 1"/>
  <g id="Livello_2" data-name="Livello 2">
    <g id="Livello_1-2" data-name="Livello 1">
      <g>
        <g>
          <path class="cls-7" d="M108.79,130.32c-3.43,1.29-6.71-2.33-4.79-5.27C121.58,98.08,179.79,11.57,201.06,15.43c45.01,8.19-46.54,97.71-92.26,114.89Z"/>
          <path class="cls-3" d="M110.46,128.28c-2.73,1.02-5.33-1.85-3.81-4.19,13.96-21.43,60.21-90.17,77.11-87.1,35.76,6.51-36.98,77.63-73.31,91.28Z"/>
          <path class="cls-2" d="M110.41,128.5c-1.87,.7-3.66-1.27-2.62-2.88,9.59-14.73,41.37-61.95,52.98-59.84,24.57,4.47-25.4,53.34-50.36,62.72Z"/>
        </g>
        <g>
          <path class="cls-7" d="M77.52,138.88c3.01,2.32,7.41-.06,6.44-3.47C75.02,104.18,44.53,3.42,22.13,.28c-47.39-6.65,15.33,107.65,55.39,138.6Z"/>
          <path class="cls-3" d="M76.51,136.41c2.39,1.85,5.89-.05,5.12-2.75-7.1-24.82-31.33-104.88-49.12-107.37-37.65-5.28,12.18,85.53,44.01,110.13Z"/>
          <path class="cls-2" d="M76.49,136.64c1.64,1.27,4.05-.03,3.51-1.89-4.88-17.05-21.53-72.05-33.75-73.77-25.87-3.63,8.37,58.76,30.23,75.66Z"/>
        </g>
        <path class="cls-6" d="M150.58,205.77c-37.7,12.33-72.84,17.81-115.11,1.02-8.05-3.2-13.02-11.26-11.28-19.74,2.95-14.36,9.12-36.72,21.09-53.99,10.51-15.16,25.49-26.4,46.69-24.88,46.06,3.29,62.77,56.66,68.03,81.15,1.52,7.08-2.53,14.18-9.42,16.44Z"/>
        <ellipse class="cls-8" cx="69.08" cy="174.14" rx="4.53" ry="5.98"/>
        <circle class="cls-5" cx="71.31" cy="172.98" r="2.23"/>
        <ellipse class="cls-8" cx="115.48" cy="174.14" rx="4.53" ry="5.98"/>
        <circle class="cls-5" cx="117.71" cy="172.98" r="2.23"/>
        <path class="cls-9" d="M92.08,192.59s-2.54,3.88-5.8,4.8c-2.26,.63-4.88-.16-7.25-4.66"/>
        <path class="cls-9" d="M105,192.57s-7.14,11.13-12.93,.13"/>
        <path class="cls-1" d="M92.08,193.04c-1.39-.47-4.93-1.96-5.75-5.05-.31-1.16,.64-2.27,1.83-2.11,1.97,.26,5.26,.54,8.82,.15,1.38-.15,2.37,1.31,1.65,2.5-.96,1.61-2.64,3.47-5.48,4.5-.35,.13-.73,.12-1.08,0Z"/>
        <path class="cls-9" d="M122.88,189.5s33.31-19.3,65.13-12.19"/>
        <path class="cls-9" d="M122.88,197.56s38.55-12.76,65.13,3.33"/>
        <path class="cls-9" d="M67,190.69S32.79,171.39,.13,178.5"/>
        <path class="cls-9" d="M67,198.75S27.41,185.99,.13,202.08"/>
        <path class="cls-4" d="M64.55,215.19s-16.66,3.87-18.32,18.46,12.3,2.98,12.3,2.98c0,0-11.91,27.86,0,55.71,0,0-8.33-.66-8.16,6.96,.17,7.63,23.16,0,23.16,0,0,0,19.9,5.97,37.42-.33,0,0,12.54,5.31,20.83,.99s-1.33-10.94-6.63-7.63c0,0,11.94-25.53-.66-55.38,0,0,12.6,10.28,12.27-2.98s-19.05-19.51-19.05-19.51"/>
      </g>
      <path class="cls-1" d="M96.65,197.58s-5.26,7.11-10.17,0c0,0,2.85-.85,5.53-4.47,0,0,2.16,3.95,4.64,4.47Z"/>
    </g>
  </g>
</svg>