<svg xmlns="http://www.w3.org/2000/svg" xmlns:xlink="http://www.w3.org/1999/xlink" width="140" height="148" viewBox="0 0 140 148">
  <defs>
    <filter id="Ellipse_1" x="0" y="0" width="140" height="148" filterUnits="userSpaceOnUse">
      <feOffset dx="3" dy="3" input="SourceAlpha"/>
      <feGaussianBlur stdDeviation="3" result="blur"/>
      <feFlood flood-opacity="0.161"/>
      <feComposite operator="in" in2="blur"/>
      <feComposite in="SourceGraphic"/>
    </filter>
  </defs>
  <g id="Group_8" data-name="Group 8" transform="translate(-374 -303)">
    <g id="Group_5" data-name="Group 5">
      <g transform="matrix(1, 0, 0, 1, 374, 303)" filter="url(#Ellipse_1)">
        <g id="Ellipse_1-2" data-name="Ellipse 1" transform="translate(6 6)" fill="#35d823" stroke="#191616" stroke-width="5">
          <ellipse cx="61" cy="65" rx="61" ry="65" stroke="none"/>
          <ellipse cx="61" cy="65" rx="58.5" ry="62.5" fill="none"/>
        </g>
      </g>
    </g>
    <line id="Line_7" data-name="Line 7" transform="translate(406.5 362.5)" fill="none" stroke="#707070" stroke-width="1"/>
    <path id="Path_1" data-name="Path 1" d="M407.152,351.061c-.2.282-.652,21.955-.652,21.955h0s-.989.23,2.187,0,13.947,0,13.947,0l35.086,17.615V326.158l-35.086,24.337S407.348,350.779,407.152,351.061Z" transform="translate(-9.451 16.022)" fill="none" stroke="#070707" stroke-width="4"/>
    <path id="Path_4" data-name="Path 4" d="M458.5,358.519s20.856,9.688,0,28.345" transform="matrix(0.999, -0.035, 0.035, 0.999, -16.691, 16.699)" fill="none" stroke="#030303" stroke-width="5"/>
    <path id="Path_5" data-name="Path 5" d="M458.5,358.519s34.773,16.358,0,47.857" transform="translate(0.669 -8.031)" fill="none" stroke="#030303" stroke-width="5"/>
  </g>
</svg>
