<?xml version="1.0" encoding="utf-8"?>
<!-- Generator: Adobe Illustrator 26.2.1, SVG Export Plug-In . SVG Version: 6.00 Build 0)  -->
<svg version="1.1" id="a" xmlns="http://www.w3.org/2000/svg" xmlns:xlink="http://www.w3.org/1999/xlink" x="0px" y="0px"
	 viewBox="0 0 1920 1080" style="enable-background:new 0 0 1920 1080;" xml:space="preserve">
<style type="text/css">
	.st0{fill:#FF9933;}
	.st1{font-family:'ArialMT';}
	.st2{font-size:96.76px;}
	.st3{fill:#66FFFF;}
	.st4{fill:#FFCC00;}
	.st5{fill:#009900;}
	.st6{fill:#33CC00;}
	.st7{fill:#339933;stroke:#000000;stroke-width:1.1849;stroke-miterlimit:10;}
	.st8{opacity:0.4;fill:#330000;stroke:#000000;stroke-miterlimit:10;enable-background:new    ;}
	.st9{fill:#999966;stroke:#000000;stroke-width:1.2308;stroke-miterlimit:10;}
	.st10{opacity:0.55;stroke:#231F20;stroke-width:3.0989;stroke-linecap:round;stroke-miterlimit:10;enable-background:new    ;}
	.st11{opacity:0.66;stroke:#231F20;stroke-width:3.6163;stroke-linecap:round;stroke-miterlimit:10;enable-background:new    ;}
	.st12{opacity:0.66;stroke:#231F20;stroke-width:3.6998;stroke-linecap:round;stroke-miterlimit:10;enable-background:new    ;}
	.st13{opacity:0.66;stroke:#231F20;stroke-width:3.6667;stroke-linecap:round;stroke-miterlimit:10;enable-background:new    ;}
	.st14{opacity:0.66;stroke:#231F20;stroke-width:3.6099;stroke-linecap:round;stroke-miterlimit:10;enable-background:new    ;}
	.st15{opacity:0.66;stroke:#231F20;stroke-width:3.7108;stroke-linecap:round;stroke-miterlimit:10;enable-background:new    ;}
	.st16{opacity:0.66;stroke:#231F20;stroke-width:3.5752;stroke-linecap:round;stroke-miterlimit:10;enable-background:new    ;}
</style>
<g>
	<text transform="matrix(0.49 0 0 1 484.79 601.8799)" class="st0 st1 st2">The Little Bunny</text>
	<text transform="matrix(0.49 0 0 1 484.79 718)" class="st0 st1 st2">                 Carrot Lover</text>
	<g>
		<path class="st3" d="M-34.7-7.6c-12,0.1-21.7,9.8-21.9,21.9l-0.8,74.9l-1,87.9l-3,265.8l-1.2,109.5c-0.2,19.2,22.5,29.5,36.8,16.6
			l47.7-42.7l161.8-139c0.6-0.5,1.1-0.9,1.7-1.3l52.8-37c0.3-0.2,0.6-0.4,1-0.6l54.9-34.3c1.2-0.8,2.6-1.4,3.9-2l52.8-19.8
			c2.2-0.8,4.5-1.3,6.9-1.4l53.7-2.2c3.2-0.1,6.5,0.5,9.5,1.7l67.9,28.5c0.5,0.2,1,0.5,1.5,0.7l56.3,29c1.8,0.9,3.5,2.1,5,3.5
			l114,107.1c1,1,2.1,1.8,3.3,2.5l56.4,35.9c2.3,1.5,4.9,2.5,7.6,3l26.7,5.2c2.6,0.5,5.2,0.5,7.8,0.1l67.7-10.9c2.2-0.4,4.3-1,6.3-2
			l27.1-13.4c1.1-0.5,2.2-1.2,3.1-1.9l97.1-70.1c1.5-1.1,2.9-2.4,4.1-3.8l63.7-76.6c0.5-0.6,1-1.2,1.6-1.7l48.1-46.9
			c2.6-2.5,5.8-4.4,9.3-5.4l60.1-17.3c4.2-1.2,8.6-1.1,12.7,0.1l28.3,8.8c0.7,0.2,1.4,0.5,2.1,0.8l80.3,34.2c1,0.4,2,0.9,2.9,1.5
			l124.6,76.4c0.3,0.2,0.7,0.4,1,0.7l98.7,68.3l14.6,10.7c2.1,1.5,4.5,2.7,7,3.4l44.2,12.7c1.6,0.5,3.2,0.7,4.9,0.8l40.6,2.3
			c2.8,0.2,5.6-0.2,8.2-1.1l29.2-9.8c9.7-3.2,15.9-12.7,15-23l-3-34c-0.1-1.5-0.1-3,0.1-4.5l4.8-42.2c0.5-4.5,2.4-8.8,5.4-12.1
			l12.2-13.7c4.2-4.8,10.4-7.5,16.8-7.5l15.8,0.2c3.7,0,7.3,1,10.6,2.8l108.1,60.7l108,67.5c2.6,1.6,5.4,2.6,8.4,3.1l0,0
			c13.6,2.1,25.7-8.6,25.4-22.3l-9.2-449.3c-0.2-12.1-10.2-21.8-22.4-21.7L-34.7-7.6z"/>
		<circle class="st4" cx="813.8" cy="389.4" r="100"/>
		<path class="st5" d="M-22.3,539.2c0-3.2,1.4-6.3,3.8-8.5c337.4-295.3,406.8-330.2,548.1-254.6C671.4,351.9,702,504.6,890.7,411
			c188.8-93.6,202.5-334.3,374.4-169.4c173.6,166.5,246.7,250.1,340.7,165.4c89.8-81,34.8-170.9,151-111.3
			c139.6,71.7,199,116.2,216.1,128.9c3.3,2.5,5,6.5,4.4,10.5L1938,719.4c-0.9,6.3-6.8,10.6-13.1,9.5l-3.7-0.7
			c-0.7-0.1-1.4-0.2-2.2-0.2L-11.1,759.6l0,0c-6.2,0-11.2-5-11.2-11.2V539.2L-22.3,539.2z"/>
		<g>
			<path class="st6" d="M9.2,756.6c0,0,1031-207,1477-123s444,84,444,84l-1,370H10.2L9.2,756.6z"/>
		</g>
	</g>
	<path class="st7" d="M1476.6,619.9c12.5-0.5,22.9-2.8,30.4-5c16-4.7,24-7.1,30.4-13.7c4-4.2,7.4-9.6,11.2-8.7
		c3.3,0.7,4.8,5.5,5.6,7.5c6.3,15.2,37.7,20.9,60.7,16.2c22.7-4.6,37.3-19.5,45-27.5c43.8-45.7,44.2-115.4,43.8-132.4
		c-1.8-79.2-45.5-127.2-55.1-132.4c-12.7-6.9-25.8-8.7-25.8-8.7l0,0c-0.9-0.2,0.7-7.6,0-13.7c-0.6-4.9-2.2-6.1-5.6-13.7
		c-3-6.9-4-11.2-5.6-16.2c-4.6-14.7-14.8-36.6-19.1-45c-19.6-38.2-50.6-59.9-50.6-59.9c-10.8-7.6-42.3-29.7-83.2-23.7
		c-26.9,3.9-45.1,18-57.3,27.5c-13.1,10.2-41,31.8-54,69.9c-8.7,25.6-9.2,54.3-20.2,56.2c-2.2,0.4-3.5-0.6-5.6-1.2
		c-17.3-5.4-43.8,24-58.5,50c-16.5,29.1-19.7,57-21.4,72.4c-2.2,20.4-6.6,59.3,11.2,102.4c8.7,21,22.3,55.5,56.2,71.2
		c12.5,5.8,44.4,10.7,65.2,2.5c2.6-1,9.4-4,18-2.5c10.2,1.8,16.9,9,19.1,11.2C1419.6,610.5,1436.7,619.2,1476.6,619.9z"/>
	<path class="st8" d="M1302.3,1014.8c-33.9,7.6-60.4,2.2-69,18c-0.6,1.2-3.3,6.2-2,12c5,22.7,63.6,25.8,67,26c31,1.4,34-7.1,64-5
		c27.1,1.9,30.6,9.3,56,13c37.8,5.5,41.3-9.3,85-10c51.8-0.8,67.7,19.5,102,6c16.6-6.5,34.8-20,33-30c-1.8-9.7-21-9.1-66-27
		c-20.1-8-20.8-9.9-38-16c-10.1-3.6-30-10-54-14c-20.2-3.3-71.7-11.3-128,7C1323.9,1004,1326.8,1009.3,1302.3,1014.8z"/>
	<path class="st9" d="M1478.5,247.2L1478.5,247.2c3.5,1,5.3,1.4,5.3,1.4S1482.1,248.2,1478.5,247.2L1478.5,247.2v0.3l0,0
		c-5,96.2-9.9,192.4-14.9,288.6c-3.7-2.4-9.3-6.2-16-11.4c-14-10.9-24.4-22.1-44.7-44.1c-10.3-11.1-35.5-38.5-36.1-39.8
		c0,0,0,0,0-0.1c0,0-0.5-0.2-6.4,21.3c30.5,41.3,61,82.5,91.5,123.8c2.9,4.6,6.5,11.7,8.5,21.3c0,0,0.7,3.5,1.1,7.1
		c7,71.8-24.5,259-24.5,259c-7.7,50.6-11.7,83-24.5,116.7c-2.5,6.5-18.1,46.9-18.1,47c21.8-5.4,39.7-4.7,52.2-2.8
		c13.8,2,33.1,7.2,33,8.5c-0.1,0.5-3,0.8-3.2,0c-0.4-1.8,14.3-11.3,29.8-15.7c5.8-1.6,39.6-11.1,58.4,6.5c0.4,0.4,0.8,0.8,1.2,0.6
		c6.8-3-36.1-143.6-52.2-318.8c-3.8-41.8-10.6-134.8-10.6-135.2c5.7-6.4,15.7-17.8,27.7-32.7c32.5-40.4,61.6-83.8,61.7-84
		c-3.2-6.2-6.4-12.3-9.6-18.5c-46.2,50.7-60.9,69.6-64.9,76.8c0,0-6.1,11-13.8,15.7c-2.6,1.6-5.6,2.6-5.6,2.6
		c-0.5,0.2-0.8,0.3-0.8,0.3c-4.7-0.6,0-98.2,0-98.2s0-48.4-6.4-193.5h-7.5"/>
	<g>
		<g>
			<ellipse class="st10" cx="1297.7" cy="736.7" rx="96.7" ry="100.4"/>
		</g>
		<ellipse class="st11" cx="1297.7" cy="738.7" rx="68.4" ry="88.3"/>
	</g>
	<g>
		<g>
			<ellipse class="st10" cx="1134.2" cy="952.1" rx="96.7" ry="100.4"/>
		</g>
		<ellipse class="st12" cx="1137.2" cy="954.4" rx="71.3" ry="88.7"/>
	</g>
	<g>
		<g>
			<ellipse class="st10" cx="1012.2" cy="741.8" rx="96.7" ry="100.4"/>
		</g>
		<ellipse class="st13" cx="1012.2" cy="741.8" rx="68.4" ry="90.8"/>
	</g>
	<g>
		<ellipse class="st10" cx="880.9" cy="962.8" rx="96.7" ry="100.4"/>
	</g>
	<ellipse class="st14" cx="880.9" cy="964.5" rx="68.4" ry="88"/>
	<g>
		<ellipse class="st10" cx="732.5" cy="759.6" rx="96.7" ry="100.4"/>
	</g>
	<ellipse class="st15" cx="735.4" cy="762.4" rx="71.4" ry="89.2"/>
	<g>
		<g>
			<ellipse class="st10" cx="586.6" cy="966.1" rx="96.7" ry="100.4"/>
		</g>
		<ellipse class="st16" cx="586.6" cy="966.1" rx="68.4" ry="86.4"/>
	</g>
</g>
</svg>
