<?xml version="1.0" encoding="utf-8"?>
<!-- Generator: Adobe Illustrator 26.2.1, SVG Export Plug-In . SVG Version: 6.00 Build 0)  -->
<svg version="1.1" id="a" xmlns="http://www.w3.org/2000/svg" xmlns:xlink="http://www.w3.org/1999/xlink" x="0px" y="0px"
	 viewBox="0 0 1095 962.5" style="enable-background:new 0 0 1095 962.5;" xml:space="preserve">
<style type="text/css">
	.st0{fill:#006600;}
	.st1{fill:#FF9933;}
</style>
<g id="b">
	<g>
		<path class="st0" d="M354,235.6c9.8-10.1,19.6-19.2,28.9-29.3c6.2,4.9,10.6,9.6,13.7,12.4c14.7,14,24.3,24.3,48.5,50
			c11.4,11.9,10.6,11.4,11.4,11.9c2.3,2.8,3.1,4.1,3.4,3.4c2.3-0.3,1-15,0.5-37.3c0.3-13.5,1-11.7,1.3-34.4
			c0.3-16.6,0.3-24.9,0.5-25.1c-1-7.8-1-9.3,0.3-11.9c6.5-12.9,40.8-8.8,42.6-1c0,1.3,0,1.3-0.8,4.4c-0.8,4.9-0.3,9.3-0.3,11.9
			c-1,9.1-0.3,10.6,0.3,25.6c0,4.4,0.5,16.3-0.5,29.8c-1,22.8-3.6,32.4-0.5,34.2c3.1,1.6,8.5-4.9,14.2-10.4
			c18.8-21,42.1-36.8,62.7-55.9l27.1,25.6l-74.6,74.1l25.8-25.4l-25.8,25.4c-5.4-2.6-13.7-5.2-22.7-7.5c-3.1-0.5-8.5-1.8-14.5-2.6
			c-12.6-1.3-29.9-2.8-46.2,6.2c-6.7,3.1-14.7,8.5-18.6,5.4c-0.8,0-0.8-0.5-1.3-1.3c-3.1-4.1-2.8-9.1-3.4-10.6
			c-0.5-6.2-8.8-9.1-17.8-15.3c-9.5-7-6.2-7-22.2-21c-8.8-7.8-11.9-9.6-18.8-16.8C360.4,243.3,356,238.9,354,235.6L354,235.6
			L354,235.6z"/>
		<g>
			<path class="st1" d="M544.9,315.3c-8.3-5.7-13.7-9.1-22.5-12.2c-16-6-29.9-5.2-44.9-4.7c-18.1,1-32.3,2.1-48.8,8.3
				c-26.6,10.9-40.8,29.5-46.4,37.8c-5.2,6.7-13.4,18.9-17.5,36.8c-2.1,7.8-2.1,13.7-1.3,30.8c1.8,35.5,3.4,50,3.4,50
				c14.2,112.7,22.7,163.7,22.7,163.7c14.7,89.6,19.6,111.1,25.5,130.8c7,24.1,13.9,45.6,23.2,67.3c0,0,4.1,9.3,14.7,23.8
				c3.4,4.4,7.2,9.6,13.7,11.7c1.3,0.5,5.4,1.3,10.3,0.3c5.2-1,7.5-4.4,9.8-7.3c9-10.4,14.2-16.1,15.2-17.6
				c27.6-45.6,53.9-176.1,53.9-176.1c11.9-57.5,13.7-63.2,19.6-97.4c8-46.9,6.2-52.3,12.1-90.1c2.6-16.3,5.4-25.6,7.2-44.5
				c2.3-22,1.5-29.8,1.5-32.9c-1-9.3-1.8-25.1-11.9-41.7C573.6,334,559.6,324.7,544.9,315.3L544.9,315.3L544.9,315.3z"/>
			<path class="st1" d="M544.9,315.3c-8.3-5.7-13.7-9.1-22.5-12.2c-16-6-29.9-5.2-44.9-4.7c-18.1,1-32.3,2.1-48.8,8.3
				c-26.6,10.9-40.8,29.5-46.4,37.8c-5.2,6.7-13.4,18.9-17.5,36.8c-2.1,7.8-2.1,13.7-1.3,30.8c1.8,35.5,3.4,50,3.4,50
				c14.2,112.7,22.7,163.7,22.7,163.7c14.7,89.6,19.6,111.1,25.5,130.8c7,24.1,13.9,45.6,23.2,67.3c0,0,4.1,9.3,14.7,23.8
				c3.4,4.4,7.2,9.6,13.7,11.7c1.3,0.5,5.4,1.3,10.3,0.3c5.2-1,7.5-4.4,9.8-7.3c9-10.4,14.2-16.1,15.2-17.6
				c27.6-45.6,53.9-176.1,53.9-176.1c11.9-57.5,13.7-63.2,19.6-97.4c8-46.9,6.2-52.3,12.1-90.1c2.6-16.3,5.4-25.6,7.2-44.5
				c2.3-22,1.5-29.8,1.5-32.9c-1-9.3-1.8-25.1-11.9-41.7C573.6,334,559.6,324.7,544.9,315.3L544.9,315.3L544.9,315.3z"/>
			<path class="st1" d="M544.9,315.3c-8.3-5.7-13.7-9.1-22.5-12.2c-16-6-29.9-5.2-44.9-4.7c-18.1,1-32.3,2.1-48.8,8.3
				c-26.6,10.9-40.8,29.5-46.4,37.8c-5.2,6.7-13.4,18.9-17.5,36.8c-2.1,7.8-2.1,13.7-1.3,30.8c1.8,35.5,3.4,50,3.4,50
				c14.2,112.7,22.7,163.7,22.7,163.7c14.7,89.6,19.6,111.1,25.5,130.8c7,24.1,13.9,45.6,23.2,67.3c0,0,4.1,9.3,14.7,23.8
				c3.4,4.4,7.2,9.6,13.7,11.7c1.3,0.5,5.4,1.3,10.3,0.3c5.2-1,7.5-4.4,9.8-7.3c9-10.4,14.2-16.1,15.2-17.6
				c27.6-45.6,53.9-176.1,53.9-176.1c11.9-57.5,13.7-63.2,19.6-97.4c8-46.9,6.2-52.3,12.1-90.1c2.6-16.3,5.4-25.6,7.2-44.5
				c2.3-22,1.5-29.8,1.5-32.9c-1-9.3-1.8-25.1-11.9-41.7C573.6,334,559.6,324.7,544.9,315.3L544.9,315.3L544.9,315.3z"/>
			<path class="st1" d="M544.9,315.3c-8.3-5.7-13.7-9.1-22.5-12.2c-16-6-29.9-5.2-44.9-4.7c-18.1,1-32.3,2.1-48.8,8.3
				c-26.6,10.9-40.8,29.5-46.4,37.8c-5.2,6.7-13.4,18.9-17.5,36.8c-2.1,7.8-2.1,13.7-1.3,30.8c1.8,35.5,3.4,50,3.4,50
				c14.2,112.7,22.7,163.7,22.7,163.7c14.7,89.6,19.6,111.1,25.5,130.8c7,24.1,13.9,45.6,23.2,67.3c0,0,4.1,9.3,14.7,23.8
				c3.4,4.4,7.2,9.6,13.7,11.7c1.3,0.5,5.4,1.3,10.3,0.3c5.2-1,7.5-4.4,9.8-7.3c9-10.4,14.2-16.1,15.2-17.6
				c27.6-45.6,53.9-176.1,53.9-176.1c11.9-57.5,13.7-63.2,19.6-97.4c8-46.9,6.2-52.3,12.1-90.1c2.6-16.3,5.4-25.6,7.2-44.5
				c2.3-22,1.5-29.8,1.5-32.9c-1-9.3-1.8-25.1-11.9-41.7C573.6,334,559.6,324.7,544.9,315.3L544.9,315.3L544.9,315.3z"/>
			<path class="st1" d="M544.9,315.3c-8.3-5.7-13.7-9.1-22.5-12.2c-16-6-29.9-5.2-44.9-4.7c-18.1,1-32.3,2.1-48.8,8.3
				c-26.6,10.9-40.8,29.5-46.4,37.8c-5.2,6.7-13.4,18.9-17.5,36.8c-2.1,7.8-2.1,13.7-1.3,30.8c1.8,35.5,3.4,50,3.4,50
				c14.2,112.7,22.7,163.7,22.7,163.7c14.7,89.6,19.6,111.1,25.5,130.8c7,24.1,13.9,45.6,23.2,67.3c0,0,4.1,9.3,14.7,23.8
				c3.4,4.4,7.2,9.6,13.7,11.7c1.3,0.5,5.4,1.3,10.3,0.3c5.2-1,7.5-4.4,9.8-7.3c9-10.4,14.2-16.1,15.2-17.6
				c27.6-45.6,53.9-176.1,53.9-176.1c11.9-57.5,13.7-63.2,19.6-97.4c8-46.9,6.2-52.3,12.1-90.1c2.6-16.3,5.4-25.6,7.2-44.5
				c2.3-22,1.5-29.8,1.5-32.9c-1-9.3-1.8-25.1-11.9-41.7C573.6,334,559.6,324.7,544.9,315.3L544.9,315.3L544.9,315.3z"/>
			<path class="st1" d="M544.9,315.3c-8.3-5.7-13.7-9.1-22.5-12.2c-16-6-29.9-5.2-44.9-4.7c-18.1,1-32.3,2.1-48.8,8.3
				c-26.6,10.9-40.8,29.5-46.4,37.8c-5.2,6.7-13.4,18.9-17.5,36.8c-2.1,7.8-2.1,13.7-1.3,30.8c1.8,35.5,3.4,50,3.4,50
				c14.2,112.7,22.7,163.7,22.7,163.7c14.7,89.6,19.6,111.1,25.5,130.8c7,24.1,13.9,45.6,23.2,67.3c0,0,4.1,9.3,14.7,23.8
				c3.4,4.4,7.2,9.6,13.7,11.7c1.3,0.5,5.4,1.3,10.3,0.3c5.2-1,7.5-4.4,9.8-7.3c9-10.4,14.2-16.1,15.2-17.6
				c27.6-45.6,53.9-176.1,53.9-176.1c11.9-57.5,13.7-63.2,19.6-97.4c8-46.9,6.2-52.3,12.1-90.1c2.6-16.3,5.4-25.6,7.2-44.5
				c2.3-22,1.5-29.8,1.5-32.9c-1-9.3-1.8-25.1-11.9-41.7C573.6,334,559.6,324.7,544.9,315.3L544.9,315.3L544.9,315.3z"/>
		</g>
	</g>
</g>
</svg>
