<?xml version="1.0" encoding="utf-8"?>
<!-- Generator: Adobe Illustrator 26.2.1, SVG Export Plug-In . SVG Version: 6.00 Build 0)  -->
<svg version="1.1" id="Layer_1" xmlns="http://www.w3.org/2000/svg" xmlns:xlink="http://www.w3.org/1999/xlink" x="0px" y="0px"
	 viewBox="0 0 185 110" style="enable-background:new 0 0 185 110;" xml:space="preserve">
<style type="text/css">
	.st0{fill:#FFFFFF;}
	.st1{fill:#006600;}
	.st2{fill:#339933;}
</style>
<g id="clock">
	<path class="st0" d="M94.2,2.5c2.4,0,4.9,0,7.3,0c1.9,0,3.5,1.4,3.7,3.3c0.2,1.7-1,3.4-2.7,3.8c-1.1,0.2-2.2,0.3-3.3,0.2
		c-1,0-1.3,0.3-1.3,1.2c0,0.8,0,1.7,0,2.5c-0.1,0.8,0.3,1.1,1.1,1.3c3.1,0.6,6.3,1,9.3,1.9c5.5,1.6,10.7,4.2,15.2,7.8
		c0.8,0.6,1.3,0.7,2-0.1c0.8-1,1.8-1.8,2.7-2.7c1.4-1.5,3.8-1.5,5.3-0.1c0,0,0,0,0,0c1.4,1.4,1.4,3.6,0,5c-0.1,0.1-0.1,0.1-0.2,0.2
		c-0.9,0.9-1.8,1.8-2.7,2.7c-0.7,0.6-0.7,1.1-0.1,1.8C140.5,42.7,144,58.4,140,73c-2.7,10.3-9,19.4-17.7,25.5
		c-9.1,6.8-20.4,9.9-31.7,8.8C73.1,105.7,60.2,97.1,52.1,82c-5-9.3-6.5-20-4.2-30.3c1.5-7.5,5-14.5,10-20.4c0.6-0.7,0.6-1.1-0.1-1.7
		c-1.1-1-2.2-2-3.2-3.2c-1.4-1.4-1.3-3.6,0.1-5c0.3-0.3,0.6-0.5,0.9-0.6c1.4-0.7,3-0.4,4.1,0.5c1.1,1,2.2,2.1,3.2,3.2
		c0.5,0.6,0.9,0.7,1.6,0.1c6.2-5,13.6-8.3,21.5-9.6c1.2-0.2,2.3-0.3,3.5-0.4c0.7-0.1,1-0.3,1-1c0-1,0-2,0-3c0-0.6-0.3-0.9-0.9-0.9
		c-0.9,0-1.8,0-2.7,0c-2,0.1-3.7-1.5-3.8-3.5c0-0.1,0-0.1,0-0.2c0-2,1.5-3.6,3.5-3.7c0.1,0,0.1,0,0.2,0C89.3,2.5,91.8,2.5,94.2,2.5
		L94.2,2.5z M134.3,61.3c0-21.7-18-39.3-40.1-39.3c-22,0-40,17.7-40,39.3s18,39.4,40.2,39.4C116.4,100.7,134.3,83,134.3,61.3z"/>
	<path class="st1" d="M94.1,6.3c2.2,0,4.4,0,6.6,0c1.7,0,3.1,1.3,3.3,3c0.2,1.6-0.8,3.1-2.4,3.5c-1,0.2-2,0.2-3,0.1
		c-0.9,0-1.2,0.3-1.1,1.1c0,0.8,0,1.5,0,2.3c0,0.8,0.3,1,1,1.2c2.8,0.5,5.6,1,8.4,1.7c5,1.4,9.6,3.9,13.7,7.1
		c0.7,0.5,1.2,0.7,1.8-0.1s1.6-1.7,2.4-2.5c1.3-1.3,3.4-1.4,4.7-0.1c0,0,0.1,0.1,0.1,0.1c1.3,1.3,1.2,3.3,0,4.6c0,0-0.1,0.1-0.1,0.1
		c-0.8,0.8-1.6,1.7-2.5,2.5c-0.6,0.6-0.7,1-0.1,1.7c8.9,10.6,12,24.9,8.4,38.2c-2.4,9.4-8.1,17.7-16,23.3c-8.2,6.2-18.4,9-28.6,8
		c-15.6-1.4-27.2-9.3-34.5-23.2c-4.5-8.5-5.8-18.3-3.8-27.7c1.4-6.9,4.5-13.3,9-18.6c0.5-0.6,0.5-1-0.1-1.5c-1-0.9-2-1.9-2.9-2.9
		c-1.2-1.3-1.2-3.4,0.1-4.6c0.2-0.2,0.5-0.4,0.8-0.6c1.2-0.6,2.7-0.4,3.7,0.5c1,0.9,2,1.9,3,2.9c0.5,0.5,0.8,0.6,1.5,0.1
		c5.6-4.5,12.2-7.6,19.3-8.8c1-0.2,2.1-0.3,3.2-0.4c0.6-0.1,0.9-0.3,0.9-0.9c0-0.9,0-1.9,0-2.8c0-0.6-0.3-0.8-0.8-0.8
		c-0.8,0-1.6,0-2.4,0c-1.8,0.1-3.4-1.3-3.5-3.2c0,0,0-0.1,0-0.1c0-1.8,1.4-3.3,3.2-3.3c0,0,0.1,0,0.1,0C89.7,6.3,91.9,6.3,94.1,6.3
		L94.1,6.3z M130.1,60.1c0-19.9-16.1-36-36-36s-36,16.1-36,36s16.1,36,36,36c0,0,0.1,0,0.1,0C114.1,96.1,130.2,80,130.1,60.1
		L130.1,60.1z"/>
	<circle class="st2" cx="94.4" cy="60.5" r="32.3"/>
</g>
</svg>
