<?xml version="1.0" encoding="UTF-8"?><svg id="a" xmlns="http://www.w3.org/2000/svg" width="1920" height="1080" xmlns:xlink="http://www.w3.org/1999/xlink" viewBox="0 0 1920 1080"><defs><style>.e{fill:none;stroke:#1d1d1b;}.e,.f{stroke-width:.5px;}.e,.f,.g{stroke-miterlimit:10;}.h{fill:#c33;}.i{fill:#fff;}.j{fill:#ea4c65;}.k{fill:#e7b1ca;}.l,.m{fill:#f93;}.n{fill:#e0e0e0;}.o{filter:url(#b);}.p{font-size:65px;}.p,.q{fill:#c36;font-family:ArialMT, Arial;isolation:isolate;}.m{font-family:Bauhaus93, Bauhaus 93;font-size:96.76px;}.r{fill:#6ff;}.f,.g{stroke:#fff;}.f,.s{fill:#ededed;}.t{fill:#3c0;}.u{fill:#f0849c;}.v{fill:#090;}.w{fill:#efeeee;}.x{fill:#fc0;}.g{fill:#cff;stroke-width:2px;}.q{font-size:47.87px;}.y{fill:#1d1d1b;}.a`{fill:#060;}</style><filter id="b" x="-15%" y="-15%" width="140%" height="130%"><feGaussianBlur in="SourceAlpha" result="blur" stdDeviation="6"/><feOffset dx="8" dy="8" in="blur" result="offsetBlurredAlpha"/><feMerge><feMergeNode in="offsetBlurredAlpha"/><feMergeNode in="SourceGraphic"/></feMerge></filter></defs><text class="m" transform="translate(484.79 601.88) scale(.49 1)"><tspan x="0" y="0">The Little Bunny</tspan><tspan x="0" y="116.12" xml:space="preserve">                 Carrot Lover</tspan></text><g><path class="r" d="M-45.91-16.16c-12.01,.14-21.72,9.84-21.86,21.86l-.84,74.85-.99,87.89-2.99,265.82-1.23,109.46c-.22,19.23,22.53,29.55,36.86,16.72l47.66-42.7,161.84-138.97c.55-.47,1.11-.91,1.7-1.32l52.76-37.02c.32-.22,.65-.44,.98-.65l54.89-34.32c1.25-.78,2.57-1.43,3.94-1.95l52.75-19.83c2.21-.83,4.53-1.3,6.88-1.4l53.67-2.17c3.24-.13,6.47,.45,9.46,1.71l67.87,28.51c.53,.22,1.04,.46,1.55,.72l56.3,28.97c1.83,.94,3.53,2.14,5.03,3.55l113.95,107.12c1.01,.95,2.1,1.8,3.27,2.54l56.41,35.93c2.32,1.48,4.91,2.51,7.61,3.05l26.7,5.25c2.56,.5,5.19,.55,7.77,.14l67.68-10.86c2.19-.35,4.32-1.03,6.3-2.02l27.12-13.42c1.1-.54,2.15-1.18,3.14-1.89l97.08-70.11c1.51-1.09,2.87-2.36,4.06-3.8l63.65-76.61c.49-.59,1.02-1.16,1.57-1.7l48.41-47.23c2.62-2.55,5.82-4.42,9.34-5.42l60.11-17.27c4.15-1.19,8.56-1.14,12.68,.14l28.29,8.82c.71,.22,1.4,.47,2.08,.76l80.26,34.16c1,.43,1.97,.92,2.89,1.49l124.61,76.36c.35,.21,.69,.44,1.03,.67l98.74,68.3,14.57,10.72c2.11,1.55,4.47,2.72,6.99,3.44l44.18,12.72c1.59,.46,3.22,.73,4.87,.83l40.64,2.3c2.79,.16,5.59-.22,8.25-1.1l29.21-9.75c9.72-3.24,15.94-12.74,15.02-22.95l-3.04-33.97c-.13-1.49-.12-2.99,.05-4.47l4.8-42.23c.51-4.51,2.4-8.75,5.4-12.15l12.15-13.74c4.25-4.81,10.39-7.54,16.81-7.46l15.82,.18c3.71,.04,7.34,1.01,10.58,2.83l108.07,60.68,107.99,67.45c2.56,1.6,5.41,2.65,8.39,3.11h0c13.56,2.06,25.71-8.6,25.43-22.31l-9.2-449.35c-.25-12.13-10.23-21.79-22.36-21.66L-45.91-16.16Z"/><circle class="x" cx="802.58" cy="380.8" r="99.95"/><path class="v" d="M-33.5,530.57c0-3.24,1.4-6.32,3.83-8.45C307.75,226.83,377.13,191.92,518.4,267.47c141.8,75.83,172.4,228.47,361.13,134.92,188.73-93.56,202.44-334.32,374.39-169.38,173.58,166.5,246.7,250.15,340.73,165.44,89.85-80.95,34.85-170.95,150.98-111.28,139.64,71.74,199.02,116.18,216.06,128.87,3.29,2.45,4.98,6.48,4.42,10.54l-39.33,284.28c-.87,6.32-6.84,10.64-13.11,9.5l-3.73-.67c-.72-.13-1.45-.19-2.18-.18L-22.28,751h0c-6.2,0-11.22-5.02-11.22-11.22v-209.2Z"/><g class="o"><path class="t" d="M-2,748s1031-207,1477-123,444,84,444,84l-1,370H-1l-1-331Z"/></g><image transform="translate(1238 222) scale(.16 .22)" xlink:href="../tshirt/R (3).png"/></g><g><g><g><path class="n" d="M1080.72,671.39c-4.6,2.1-9-3.8-6.4-8.5,23.7-43.7,102-183.9,130.6-177.6,60.5,13.2-62.7,158.2-124.2,186.1h0Z"/><path class="k" d="M1082.92,667.99c-3.7,1.7-7.2-3-5.1-6.8,18.8-34.7,81-146.1,103.8-141.1,48,10.6-49.8,125.8-98.7,147.9h0Z"/><path class="j" d="M1082.92,668.39c-2.5,1.1-4.9-2.1-3.5-4.7,12.9-23.9,55.7-100.4,71.3-97,33,7.3-34.3,86.5-67.8,101.7h0Z"/></g><g><path class="n" d="M1038.62,685.19c4.1,3.8,10-.1,8.7-5.6-12-50.6-53.1-213.9-83.2-219-63.8-10.7,20.6,174.5,74.5,224.6h0Z"/><path class="k" d="M1037.22,681.19c3.2,3,7.9-.1,6.9-4.5-9.6-40.2-42.2-170-66.1-174-50.6-8.5,16.4,138.7,59.2,178.5h0Z"/><path class="j" d="M1037.22,681.59c2.2,2.1,5.4,0,4.7-3.1-6.6-27.6-29-116.8-45.4-119.5-34.8-5.9,11.3,95.2,40.7,122.6h0Z"/></g><path class="w" d="M1136.92,793.59c-50.7,20-98,28.9-154.9,1.7-10.8-5.2-17.5-18.2-15.2-32,4-23.3,12.3-59.5,28.4-87.5,14.1-24.6,34.3-42.8,62.8-40.3,62,5.3,84.5,91.8,91.5,131.5,2.1,11.4-3.3,23-12.6,26.6h0Z"/><ellipse class="y" cx="1027.22" cy="742.39" rx="6.1" ry="9.7"/><ellipse class="i" cx="1030.22" cy="740.49" rx="3" ry="3.6"/><ellipse class="y" cx="1089.72" cy="742.39" rx="6.1" ry="9.7"/><ellipse class="i" cx="1092.72" cy="740.49" rx="3" ry="3.6"/><path class="e" d="M1058.22,772.29s-3.4,6.3-7.8,7.8c-3,1-6.6-.3-9.8-7.5"/><path class="e" d="M1075.62,772.19s-9.6,18-17.4,.2"/><path class="u" d="M1058.22,772.99c-1.9-.8-6.6-3.2-7.7-8.2-.4-1.9,.9-3.7,2.5-3.4,2.7,.4,7.1,.9,11.9,.2,1.9-.2,3.2,2.1,2.2,4-1.3,2.6-3.6,5.6-7.4,7.3-.6,.3-1.1,.3-1.5,.1h0Z"/><path class="e" d="M1099.62,767.29s44.8-31.3,87.6-19.8"/><path class="e" d="M1099.62,780.29s51.9-20.7,87.6,5.4"/><path class="e" d="M1024.42,769.19s-46-31.3-90-19.8"/><path class="e" d="M1024.42,782.19s-53.3-20.7-90,5.4"/><path class="s" d="M1027.32,807.19s-29.5,6.8-24.7,29.9c1.8,8.5,16.6,4.8,16.6,4.8,0,0-16,45.2,0,90.3,0,0-11.2-1.1-11,11.3,.2,12.4,31.2,0,31.2,0,0,0,26.8,9.7,50.3-.5,0,0,16.9,8.6,28,1.6,11.2-7-1.8-17.7-8.9-12.4,0,0,16.1-41.4-.9-89.7l-9.1-36.4"/></g><path class="u" d="M1064.52,780.19s-7.1,11.5-13.7,0c0,0,3.8-1.4,7.4-7.2,0,0,3,6.4,6.3,7.2h0Z"/><g id="c"><g id="d"><path class="a`" d="M1048.12,800.29c1.1-1,2.2-1.9,3.2-2.9,.7,.5,1.2,.9,1.6,1.2,1.7,1.3,2.8,2.3,5.5,4.8,1.3,1.1,1.2,1.1,1.3,1.1,.3,.3,.3,.4,.4,.3,.3,0,.1-1.5,0-3.6,0-1.3,.1-1.1,.1-3.3v-2.4c-.1-.8-.1-.9,0-1.1,.7-1.3,4.6-.9,4.8-.2,0,.1,0,.2-.1,.4-.1,.5,0,.9,0,1.1-.1,.9,0,1,.1,2.5,0,.4,.1,1.6,0,2.9-.1,2.2-.3,3.1,0,3.3s.9-.5,1.6-1c2.1-2,4.7-3.6,6.9-5.5l3.1,2.4-8.2,7.3,2.8-2.5-2.8,2.5c-.6-.2-1.6-.5-2.5-.7-.3,0-.9-.2-1.6-.2-1.4-.1-3.4-.2-5.2,.7-.7,.3-1.6,.9-2.1,.5q-.1,0-.1-.1c-.3-.4-.3-.9-.4-1-.1-.6-1-.9-2-1.5-1.1-.7-.7-.7-2.5-2-1-.8-1.3-.9-2.2-1.6-1-.7-1.5-1.1-1.7-1.4h0Z"/><g><path class="l" d="M1070.52,807.89c-.9-.5-1.6-.9-2.5-1.1-1.8-.5-3.4-.5-5-.4-2,.1-3.6,.2-5.5,.9-3,1.1-4.5,2.9-5.1,3.7-.6,.7-1.5,1.8-1.9,3.6-.2,.8-.2,1.3-.1,3,.3,3.4,.5,4.8,.5,4.8,1.8,10.9,2.8,15.8,2.8,15.8,1.8,8.6,2.4,10.7,3.1,12.6,.8,2.3,1.6,4.4,2.7,6.5,0,0,.5,.9,1.7,2.3,.4,.4,.8,.9,1.6,1.1,.1,0,.6,.1,1.2,0s.8-.4,1.1-.7c1-1,1.6-1.6,1.7-1.7,3-4.4,5.7-17.1,5.7-17.1,1.2-5.6,1.4-6.1,2-9.4,.8-4.5,.6-5.1,1.2-8.7,.3-1.6,.6-2.5,.7-4.3,.2-2.1,.1-2.9,.1-3.2-.1-.9-.3-2.4-1.4-4-1.4-2-2.9-2.8-4.6-3.7h0Z"/><path class="l" d="M1070.52,807.89c-.9-.5-1.6-.9-2.5-1.1-1.8-.5-3.4-.5-5-.4-2,.1-3.6,.2-5.5,.9-3,1.1-4.5,2.9-5.1,3.7-.6,.7-1.5,1.8-1.9,3.6-.2,.8-.2,1.3-.1,3,.3,3.4,.5,4.8,.5,4.8,1.8,10.9,2.8,15.8,2.8,15.8,1.8,8.6,2.4,10.7,3.1,12.6,.8,2.3,1.6,4.4,2.7,6.5,0,0,.5,.9,1.7,2.3,.4,.4,.8,.9,1.6,1.1,.1,0,.6,.1,1.2,0s.8-.4,1.1-.7c1-1,1.6-1.6,1.7-1.7,3-4.4,5.7-17.1,5.7-17.1,1.2-5.6,1.4-6.1,2-9.4,.8-4.5,.6-5.1,1.2-8.7,.3-1.6,.6-2.5,.7-4.3,.2-2.1,.1-2.9,.1-3.2-.1-.9-.3-2.4-1.4-4-1.4-2-2.9-2.8-4.6-3.7h0Z"/><path class="l" d="M1070.52,807.89c-.9-.5-1.6-.9-2.5-1.1-1.8-.5-3.4-.5-5-.4-2,.1-3.6,.2-5.5,.9-3,1.1-4.5,2.9-5.1,3.7-.6,.7-1.5,1.8-1.9,3.6-.2,.8-.2,1.3-.1,3,.3,3.4,.5,4.8,.5,4.8,1.8,10.9,2.8,15.8,2.8,15.8,1.8,8.6,2.4,10.7,3.1,12.6,.8,2.3,1.6,4.4,2.7,6.5,0,0,.5,.9,1.7,2.3,.4,.4,.8,.9,1.6,1.1,.1,0,.6,.1,1.2,0s.8-.4,1.1-.7c1-1,1.6-1.6,1.7-1.7,3-4.4,5.7-17.1,5.7-17.1,1.2-5.6,1.4-6.1,2-9.4,.8-4.5,.6-5.1,1.2-8.7,.3-1.6,.6-2.5,.7-4.3,.2-2.1,.1-2.9,.1-3.2-.1-.9-.3-2.4-1.4-4-1.4-2-2.9-2.8-4.6-3.7h0Z"/><path class="l" d="M1070.52,807.89c-.9-.5-1.6-.9-2.5-1.1-1.8-.5-3.4-.5-5-.4-2,.1-3.6,.2-5.5,.9-3,1.1-4.5,2.9-5.1,3.7-.6,.7-1.5,1.8-1.9,3.6-.2,.8-.2,1.3-.1,3,.3,3.4,.5,4.8,.5,4.8,1.8,10.9,2.8,15.8,2.8,15.8,1.8,8.6,2.4,10.7,3.1,12.6,.8,2.3,1.6,4.4,2.7,6.5,0,0,.5,.9,1.7,2.3,.4,.4,.8,.9,1.6,1.1,.1,0,.6,.1,1.2,0s.8-.4,1.1-.7c1-1,1.6-1.6,1.7-1.7,3-4.4,5.7-17.1,5.7-17.1,1.2-5.6,1.4-6.1,2-9.4,.8-4.5,.6-5.1,1.2-8.7,.3-1.6,.6-2.5,.7-4.3,.2-2.1,.1-2.9,.1-3.2-.1-.9-.3-2.4-1.4-4-1.4-2-2.9-2.8-4.6-3.7h0Z"/><path class="l" d="M1070.52,807.89c-.9-.5-1.6-.9-2.5-1.1-1.8-.5-3.4-.5-5-.4-2,.1-3.6,.2-5.5,.9-3,1.1-4.5,2.9-5.1,3.7-.6,.7-1.5,1.8-1.9,3.6-.2,.8-.2,1.3-.1,3,.3,3.4,.5,4.8,.5,4.8,1.8,10.9,2.8,15.8,2.8,15.8,1.8,8.6,2.4,10.7,3.1,12.6,.8,2.3,1.6,4.4,2.7,6.5,0,0,.5,.9,1.7,2.3,.4,.4,.8,.9,1.6,1.1,.1,0,.6,.1,1.2,0s.8-.4,1.1-.7c1-1,1.6-1.6,1.7-1.7,3-4.4,5.7-17.1,5.7-17.1,1.2-5.6,1.4-6.1,2-9.4,.8-4.5,.6-5.1,1.2-8.7,.3-1.6,.6-2.5,.7-4.3,.2-2.1,.1-2.9,.1-3.2-.1-.9-.3-2.4-1.4-4-1.4-2-2.9-2.8-4.6-3.7h0Z"/><path class="l" d="M1070.52,807.89c-.9-.5-1.6-.9-2.5-1.1-1.8-.5-3.4-.5-5-.4-2,.1-3.6,.2-5.5,.9-3,1.1-4.5,2.9-5.1,3.7-.6,.7-1.5,1.8-1.9,3.6-.2,.8-.2,1.3-.1,3,.3,3.4,.5,4.8,.5,4.8,1.8,10.9,2.8,15.8,2.8,15.8,1.8,8.6,2.4,10.7,3.1,12.6,.8,2.3,1.6,4.4,2.7,6.5,0,0,.5,.9,1.7,2.3,.4,.4,.8,.9,1.6,1.1,.1,0,.6,.1,1.2,0s.8-.4,1.1-.7c1-1,1.6-1.6,1.7-1.7,3-4.4,5.7-17.1,5.7-17.1,1.2-5.6,1.4-6.1,2-9.4,.8-4.5,.6-5.1,1.2-8.7,.3-1.6,.6-2.5,.7-4.3,.2-2.1,.1-2.9,.1-3.2-.1-.9-.3-2.4-1.4-4-1.4-2-2.9-2.8-4.6-3.7h0Z"/></g></g></g><path class="f" d="M1003.42,839.89c6.7,6.9,12.1,8.3,15.6,8.4,8.6,.3,19.2-6.4,24.7-8.4,2.6-1,5.3-1.9,5.3-1.9h.1c.1,0,.2-.1,.3-.2,.2-.2-.2,0,0,0,.7,0,12.6-4.8,12.5-5.4,0-.3-.2,.4,0,0,4.6-6.7-11.1-1.3-12.8-.4-.3,.2-.2,.7,0,0,.1-.4,13.1-3.3,14.5-4.7,4.1-4-9.6-3.7-10.1-3.5-1,.4,11.4-.3,11.8-.3,6.4-1.5,.3-4.2,.3-4.2,3.2-1.2-10.8,.8-10.4,1.2,.1,.1,16-1.9,12.3-8.4-1.1-1.9-4.1,1-9.4,2.7-7.7,2.3-9.3,4.5-13.8,5.3-1.3,.2-2.3,.3-4.3,.5-5.3,.4-7.6,0-13.8,.2-1.2,0-3.1,.1-5.4,.2"/><path class="f" d="M1104.32,804.09c2.8,2.5,7.4,7.4,10.3,15.4,1.5,4.3,3.2,9,1.6,13.4-2.2,6.2-9.6,8.7-14.8,8.4-3.4-.2-11.5-1.7-18.1-6-.6-.4-3.2-2-4.1-1s.8,3.7-.4,6c-.9,1.7-3.2,2.7-3.4,2.8-.1,0-.3,.1-.3,.1-.2,.1-.4,.1-.4,.1h0c-.2,2.3-1.6,4.1-3.3,4.5-1.4,.3-2.9-.5-3.6-1.7-.6-1-.3-1.6-.9-2.2-.9-1-2.3-.3-4.1,0-1.8,.3-5.2,.2-6.6-1.5-1.7-2-1-6.7,.4-9.9,2.5-5.8,7.4-6.8,17.7-11.9,3.4-1.7,8.2-4.3,14-7.9"/></g><path class="g" d="M399.02,633.19c23.8-8.5,16.3-37.8,39.9-52.3,24.9-15.3,47,9,78.4-8.2,14.4-7.9,10.5-13.5,28.9-27.5,8.7-6.7,39.7-30.4,75.7-24.5,30.7,5,49.4,28.9,57.8,39.7,25.2,32.2,34.4,78.4,34.4,78.4,8.4,1.5,14.4,4.6,17.9,6.9,15.1,9.7,22.1,26.8,21.7,31.7,0,.2-.1,.9,.3,1.4,1.9,2.3,11.6-3.1,13.8-4.1,13.6-6.6,41.7,4,59.2,19.3,6.3,5.5,34.1,31.6,27.5,67.4-6.3,34.4-60.5,56.4-60.5,56.4,0,0-13.7,16.1-15.1,17.9-10.2,12-29.2,28.4-46.8,37.2-27.6,13.8-65.7,15.4-86.7,5.5-3.3-1.5-13.2-6.7-27.5-8.2-2.5-.3-8.6-.8-16.5,0-25.9,2.7-34.8,16.2-57.8,21.5-13.8,3.2-24.7,1.6-35.8,0-24.5-3.5-41.1-13.5-59.2-24.3-15.9-9.5-23.9-14.2-28.9-22-7-10.8-7.6-21.4-16.5-24.8-5.3-2-7.9,.8-15.1,1.4-20.3,1.8-26.6-18-52.3-23.4-15.5-3.3-17,3.1-28.9-1.4-22.3-8.5-29.5-35.8-29.8-37.2-7.1-28.9,12.1-52.3,13.3-53.7,15.3-18,28.5-10.6,44-28.9,15.9-18.7,8.9-34.3,23.4-42.7,14.1-8.3,24.2,4.6,41.2-1.5h0Z"/><text class="p" transform="translate(450.17 705.32)"><tspan x="0" y="0">you won</tspan></text><text class="q" transform="translate(425.57 761.27) scale(.45 1)"><tspan x="0" y="0">Thank you I have enough carrot</tspan></text><text class="q" transform="translate(425.57 799.5) scale(.45 1)"><tspan x="0" y="0">I will not starve now because of you</tspan></text><path class="h" d="M683.62,813.69c.4-.6,.7-1,.8-1.2l1-1c.4-.3,1.3-1,2.7-1.4,.4-.1,1.4-.4,2.7-.2,1.6,.1,2.7,.7,3.2,1,1.1,.6,1.8,1.4,2,1.7,1,1.1,1.5,2.3,1.5,2.3h0c.1-.1,.2-.3,.4-.5,.4-.6,.6-1,.8-1.3,.3-.5,.6-.8,1.2-1.2,.7-.6,1.7-1.5,3.3-1.9s2.9-.1,3.5,.1c.9,.2,2.9,.9,4.4,3,.3,.4,1.2,1.5,1.6,3.3,.1,.3,.4,1.7,.3,3.6-.2,2.7-1.3,4.7-1.9,5.7-.8,1.4-1.7,2.3-3.2,4-.4,.5-.9,1-1.9,2s-1.8,1.8-2.6,2.6c-4.1,4-5.6,5.5-5.7,7.2,0,.1-.1,.7-.2,.7-.2,0-.2-1.2-1-2.5-.2-.2-.3-.4-.5-.7-1.5-1.9-2.4-2.8-2.4-2.8-1.7-1.8-2.8-2.7-4.5-4.4-2.2-2.2-3.3-3.4-3.9-4.2-1.5-2-2-2.9-2.1-3.4-.7-1.6-.8-3.1-.9-4.1-.1-1-.2-1.9,.1-3,.2-1.6,.9-2.8,1.3-3.4h0Z"/><path class="h" d="M707.12,845.99c.4-.6,.7-1,.8-1.2l1-1c.4-.3,1.3-1,2.7-1.4,.4-.1,1.4-.4,2.7-.2,1.6,.1,2.7,.7,3.2,1,1.1,.6,1.8,1.4,2.1,1.7,1,1.1,1.5,2.3,1.5,2.3h0c.1-.1,.2-.3,.4-.5,.4-.6,.6-1,.8-1.3,.3-.5,.6-.8,1.2-1.2,.7-.6,1.7-1.5,3.3-1.9s2.9-.1,3.5,.1c.9,.2,2.9,.9,4.4,3,.3,.4,1.2,1.5,1.6,3.3,.1,.3,.4,1.7,.3,3.6-.2,2.7-1.3,4.7-1.9,5.7-.8,1.4-1.7,2.3-3.2,4-.4,.5-.9,1-1.9,2s-1.8,1.8-2.6,2.6c-4.1,4-5.6,5.5-5.7,7.2,0,.1-.1,.7-.2,.7-.2,0-.2-1.2-1-2.5-.2-.2-.3-.4-.5-.7-1.5-1.9-2.4-2.8-2.4-2.8-1.7-1.8-2.8-2.7-4.5-4.4-2.2-2.2-3.3-3.4-3.9-4.2-1.5-2-1.9-2.9-2.1-3.4-.7-1.6-.8-3.1-.9-4.1s-.2-1.9,.1-3c.2-1.6,.9-2.7,1.2-3.4h0Z"/></svg>