<?xml version="1.0" encoding="UTF-8"?><svg id="a" xmlns="http://www.w3.org/2000/svg" width="1920" height="1080" xmlns:xlink="http://www.w3.org/1999/xlink" viewBox="0 0 1920 1080"><defs><style>.e{fill:#fff;}.f{fill:#ea4c65;}.g{fill:#e7b1ca;}.h{fill:none;stroke:#1d1d1b;stroke-width:.68px;}.h,.i{stroke-miterlimit:10;}.j{fill:#e0e0e0;}.k{filter:url(#b);}.l{fill:#f93;font-family:Bauhaus93, Bauhaus 93;font-size:96.76px;}.m{fill:#6ff;}.n{fill:#300;font-size:16.83px;}.n,.o{font-family:ArialMT, Arial;}.p{fill:#3c0;}.q{fill:#f0849c;}.i{fill:#ccc;stroke:#fff;stroke-width:2px;}.o{fill:#600;font-size:80.82px;}.r{fill:#090;}.s{fill:#efeeee;}.t{fill:#fc0;}.u{fill:#1d1d1b;}.v{fill:#ededed;}</style><filter id="b" x="-15%" y="-15%" width="140%" height="130%"><feGaussianBlur in="SourceAlpha" result="blur" stdDeviation="6"/><feOffset dx="8" dy="8" in="blur" result="offsetBlurredAlpha"/><feMerge><feMergeNode in="offsetBlurredAlpha"/><feMergeNode in="SourceGraphic"/></feMerge></filter></defs><text class="l" transform="translate(484.79 601.88) scale(.49 1)"><tspan x="0" y="0">The Little Bunny</tspan><tspan x="0" y="116.12" xml:space="preserve">                 Carrot Lover</tspan></text><g><path class="m" d="M-44.91-13.16c-12.01,.14-21.72,9.84-21.86,21.86l-.84,74.85-.99,87.89-2.99,265.82-1.23,109.46c-.22,19.23,22.53,29.55,36.86,16.72l47.66-42.7,161.84-138.97c.55-.47,1.11-.91,1.7-1.32l52.76-37.02c.32-.22,.65-.44,.98-.65l54.89-34.32c1.25-.78,2.57-1.43,3.94-1.95l52.75-19.83c2.21-.83,4.53-1.3,6.88-1.4l53.67-2.17c3.24-.13,6.47,.45,9.46,1.71l67.87,28.51c.53,.22,1.04,.46,1.55,.72l56.3,28.97c1.83,.94,3.53,2.14,5.03,3.55l113.95,107.12c1.01,.95,2.1,1.8,3.27,2.54l56.41,35.93c2.32,1.48,4.91,2.51,7.61,3.05l26.7,5.25c2.56,.5,5.19,.55,7.77,.14l67.68-10.86c2.19-.35,4.32-1.03,6.3-2.02l27.12-13.42c1.1-.54,2.15-1.18,3.14-1.89l97.08-70.11c1.51-1.09,2.87-2.36,4.06-3.8l63.65-76.61c.49-.59,1.02-1.16,1.57-1.7l48.41-47.23c2.62-2.55,5.82-4.42,9.34-5.42l60.11-17.27c4.15-1.19,8.56-1.14,12.68,.14l28.29,8.82c.71,.22,1.4,.47,2.08,.76l80.26,34.16c1,.43,1.97,.92,2.89,1.49l124.61,76.36c.35,.21,.69,.44,1.03,.67l98.74,68.3,14.57,10.72c2.11,1.55,4.47,2.72,6.99,3.44l44.18,12.72c1.59,.46,3.22,.73,4.87,.83l40.64,2.3c2.79,.16,5.59-.22,8.25-1.1l29.21-9.75c9.72-3.24,15.94-12.74,15.02-22.95l-3.04-33.97c-.13-1.49-.12-2.99,.05-4.47l4.8-42.23c.51-4.51,2.4-8.75,5.4-12.15l12.15-13.74c4.25-4.81,10.39-7.54,16.81-7.46l15.82,.18c3.71,.04,7.34,1.01,10.58,2.83l108.07,60.68,107.99,67.45c2.56,1.6,5.41,2.65,8.39,3.11h0c13.56,2.06,25.71-8.6,25.43-22.31l-9.2-449.35c-.25-12.13-10.23-21.79-22.36-21.66L-44.91-13.16Z"/><circle class="t" cx="803.58" cy="383.8" r="99.95"/><path class="r" d="M-32.5,533.57c0-3.24,1.4-6.32,3.83-8.45C308.75,229.83,378.13,194.92,519.4,270.47c141.8,75.83,172.4,228.47,361.13,134.92,188.73-93.56,202.44-334.32,374.39-169.38,173.58,166.5,246.7,250.15,340.73,165.44,89.85-80.95,34.85-170.95,150.98-111.28,139.64,71.74,199.02,116.18,216.06,128.87,3.29,2.45,4.98,6.48,4.42,10.54l-39.33,284.28c-.87,6.32-6.84,10.64-13.11,9.5l-3.73-.67c-.72-.13-1.45-.19-2.18-.18L-21.28,754h0c-6.2,0-11.22-5.02-11.22-11.22v-209.2Z"/><g class="k"><path class="p" d="M-1,751s1031-207,1477-123,444,84,444,84l-1,370H0l-1-331Z"/></g><image transform="translate(1239 225) scale(.16 .22)" xlink:href="../tshirt/R (3).png"/></g><path class="i" d="M538.35,732c23.78-8.5,16.31-37.79,39.9-52.28,24.94-15.33,47.02,8.99,78.42-8.25,14.41-7.91,10.53-13.46,28.89-27.52,8.69-6.66,39.67-30.38,75.67-24.54,30.68,4.98,49.36,28.89,57.78,39.67,25.2,32.25,34.39,78.42,34.39,78.42,8.45,1.45,14.42,4.64,17.89,6.88,15.1,9.74,22.09,26.85,21.7,31.65-.02,.21-.09,.89,.32,1.37,1.91,2.27,11.59-3.07,13.76-4.13,13.62-6.64,41.71,4.02,59.16,19.26,6.34,5.54,34.05,31.58,27.52,67.41-6.27,34.39-60.53,56.4-60.54,56.41,0,0-13.65,16.14-15.13,17.89-10.21,11.98-29.21,28.37-46.78,37.15-27.58,13.79-65.72,15.37-86.68,5.5-3.26-1.54-13.21-6.71-27.52-8.25-2.5-.27-8.64-.81-16.51,0-25.88,2.66-34.83,16.19-57.78,21.52-13.76,3.19-24.69,1.61-35.77,0-24.46-3.55-41.11-13.49-59.16-24.27-15.9-9.5-23.86-14.25-28.89-22.01-6.98-10.77-7.62-21.41-16.51-24.76-5.33-2.01-7.93,.75-15.13,1.38-20.34,1.76-26.6-17.98-52.28-23.39-15.48-3.26-17.03,3.11-28.89-1.38-22.35-8.45-29.45-35.82-29.77-37.15-7.07-28.93,12.11-52.3,13.26-53.66,15.3-18.04,28.45-10.58,44.03-28.89,15.86-18.66,8.91-34.28,23.39-42.65,14.13-8.17,24.19,4.74,41.27-1.38h-.01Z"/><g id="c"><g id="d"><g><g><path class="j" d="M1194,766.02c-4.39,1.85-8.58-3.34-6.13-7.56,22.48-38.67,96.93-162.72,124.13-157.19,57.56,11.74-59.52,140.11-117.99,164.74h-.01Z"/><path class="g" d="M1196.13,763.1c-3.49,1.46-6.82-2.65-4.87-6.01,17.85-30.73,77-129.3,98.62-124.89,45.73,9.33-47.29,111.31-93.76,130.89h.01Z"/><path class="f" d="M1196.07,763.41c-2.39,1-4.68-1.82-3.35-4.13,12.26-21.12,52.91-88.83,67.76-85.81,31.42,6.41-32.48,76.48-64.4,89.93h-.01Z"/></g><g><path class="j" d="M1154.01,778.3c3.85,3.33,9.48-.09,8.24-4.98-11.43-44.78-50.43-189.26-79.07-193.76-60.61-9.54,19.61,154.36,70.84,198.74h-.01Z"/><path class="g" d="M1152.72,774.75c3.06,2.65,7.53-.07,6.55-3.94-9.08-35.59-40.07-150.39-62.82-153.96-48.15-7.57,15.58,122.64,56.28,157.92h-.01v-.02Z"/><path class="f" d="M1152.69,775.08c2.1,1.82,5.18-.04,4.49-2.71-6.24-24.45-27.53-103.31-43.16-105.78-33.08-5.21,10.7,84.26,38.66,108.49h.01Z"/></g><path class="s" d="M1247.44,874.21c-48.21,17.68-93.15,25.54-147.21,1.46-10.3-4.59-16.65-16.15-14.43-28.31,3.77-20.59,11.66-52.65,26.97-77.42,13.44-21.74,32.6-37.86,59.71-35.68,58.91,4.72,80.28,81.25,87,116.36,1.94,10.15-3.24,20.33-12.05,23.57v.02Z"/><ellipse class="u" cx="1143.21" cy="828.85" rx="5.79" ry="8.57"/><ellipse class="e" cx="1146.07" cy="827.19" rx="2.85" ry="3.2"/><ellipse class="u" cx="1202.55" cy="828.85" rx="5.79" ry="8.57"/><ellipse class="e" cx="1205.41" cy="827.19" rx="2.85" ry="3.2"/><path class="h" d="M1172.63,855.31s-7.92,0-10,9.44"/><path class="h" d="M1183.98,864.75s-1.74-9.44-10.18-9.42"/><path class="q" d="M1172.63,855.96c-1.78-.67-6.3-2.81-7.35-7.24-.4-1.66,.82-3.25,2.34-3.03,2.52,.37,6.73,.77,11.28,.22,1.76-.22,3.03,1.88,2.11,3.58-1.23,2.31-3.38,4.98-7.01,6.45-.45,.19-.93,.17-1.38,0h.01v.02Z"/><path class="h" d="M1212.02,850.88s42.6-27.67,83.29-17.48"/><path class="h" d="M1212.02,862.44s49.3-18.3,83.29,4.77"/><path class="h" d="M1140.55,852.59s-43.75-27.67-85.52-17.48"/><path class="h" d="M1140.55,864.14s-50.63-18.3-85.52,4.77"/><path class="v" d="M1137.42,887.72s-21.31,5.55-23.43,26.47,15.73,4.27,15.73,4.27c0,0-15.23,39.95,0,79.88,0,0-10.65-.95-10.44,9.98s29.62,0,29.62,0c0,0,25.45,8.56,47.86-.47,0,0,16.04,7.61,26.64,1.42s-1.7-15.69-8.48-10.94c0,0,15.27-36.61-.84-79.41,0,0,16.11,14.74,15.69-4.27s-24.36-27.98-24.36-27.98"/></g></g></g><g/><g/><image transform="translate(774 891) scale(.04)" xlink:href="../tshirt/broken-heart-4.png"/><text class="o" transform="translate(507.8 801.36) scale(.84 1)"><tspan x="0" y="0">Game lost</tspan></text><text class="n" transform="translate(598.66 834.91)"><tspan x="0" y="0">I will be hungry because of you</tspan></text><text class="n" transform="translate(630.69 857.24)"><tspan x="0" y="0">you broke my heart</tspan></text><text class="n" transform="translate(614.96 875.35) rotate(.02)"><tspan x="0" y="0">I will Never forgive you</tspan></text></svg>