<?xml version="1.0" encoding="UTF-8"?><svg id="a" xmlns="http://www.w3.org/2000/svg" width="498.04" height="504.92" viewBox="0 0 498.04 504.92"><defs><style>.b{fill:#fff;}.c{fill:#ea4c65;}.d{fill:#e7b1ca;}.e{fill:#e0e0e0;}.f{fill:#f0849c;}.g{fill:#efeeee;}.h{fill:none;stroke:#1d1d1b;stroke-miterlimit:10;stroke-width:.75px;}.i{fill:#1d1d1b;}.j{fill:#ededed;}</style></defs><g><g><path class="e" d="M260.46,215.79c-4.69,2.11-9.24-3.73-6.62-8.59,24.28-43.77,104.56-184,133.94-177.68,62.07,13.29-64.28,158.39-127.32,186.27h0Z"/><path class="d" d="M262.67,212.55c-3.72,1.62-7.31-2.92-5.24-6.81,19.31-34.69,83.04-146.23,106.35-141.2,49.38,10.54-50.9,125.8-101.11,148.01h0Z"/><path class="c" d="M262.67,212.88c-2.62,1.13-5.1-2.11-3.59-4.7,13.24-23.83,57.11-100.51,73.11-96.94,33.8,7.13-35.04,86.41-69.52,101.65Z"/></g><g><path class="e" d="M217.28,229.74c4.14,3.73,10.21-.16,8.83-5.67C213.83,173.48,171.76,10.07,140.86,5.04c-65.39-10.86,21.11,174.44,76.42,224.69Z"/><path class="d" d="M215.9,225.68c3.31,3.08,8.14-.16,7.04-4.54-9.79-40.2-43.18-170.06-67.73-174.11-52-8.43,16.83,138.77,60.7,178.65h0Z"/><path class="c" d="M215.9,226.01c2.21,2.11,5.66,0,4.83-3.08-6.76-27.72-29.66-116.72-46.63-119.64-35.59-5.84,11.59,95.32,41.8,122.72h0Z"/></g><path class="g" d="M318.74,335.22c-52,19.94-100.42,28.86-158.77,1.62-11.17-5.19-17.93-18.32-15.59-31.94,4-23.34,12.55-59.5,29.11-87.54,14.48-24.64,35.18-42.8,64.42-40.37,63.59,5.35,86.63,91.92,93.8,131.48,2.07,11.51-3.45,23.02-12.97,26.75Z"/><ellipse class="i" cx="205.69" cy="286.8" rx="6.21" ry="9.73"/><ellipse class="b" cx="208.73" cy="285.02" rx="3.03" ry="3.57"/><ellipse class="i" cx="269.7" cy="286.8" rx="6.21" ry="9.73"/><ellipse class="b" cx="272.74" cy="285.02" rx="3.03" ry="3.57"/><path class="h" d="M237.42,316.79s-3.45,6.32-8,7.78c-3.17,.97-6.76-.32-9.93-7.62"/><path class="h" d="M255.22,316.79s-9.79,17.99-17.79,.16"/><path class="f" d="M237.42,317.44c-1.93-.81-6.76-3.24-8-8.27-.41-1.95,.83-3.73,2.48-3.4,2.76,.49,7.31,.81,12.14,.16,1.93-.16,3.31,2.11,2.35,4.05-1.38,2.59-3.59,5.67-7.59,7.3-.41,.32-.97,.32-1.38,.16h0Z"/><path class="h" d="M279.91,311.77s45.94-31.29,89.8-19.78"/><path class="h" d="M279.91,324.74s53.11-20.75,89.8,5.35"/><path class="h" d="M202.8,313.71s-47.18-31.29-92.28-19.78"/><path class="h" d="M202.8,326.68s-54.63-20.75-92.28,5.35"/><path class="f" d="M244.44,324.59s-7.31,11.51-14.07,0c0,0,4-1.46,7.59-7.3,0,0,3.03,6.32,6.48,7.3Z"/></g><path class="j" d="M200.34,349.15s-22.98,6.27-25.27,29.93c-2.29,23.65,16.97,4.83,16.97,4.83,0,0-16.43,45.17,0,90.31,0,0-11.49-1.07-11.26,11.28,.23,12.35,31.95,0,31.95,0,0,0,27.45,9.68,51.62-.53,0,0,17.3,8.61,28.73,1.6,11.44-7-1.83-17.74-9.15-12.37,0,0,16.47-41.39-.91-89.78,0,0,17.38,16.67,16.93-4.83-.46-21.5-26.28-31.63-26.28-31.63"/></svg>