<?xml version="1.0" encoding="UTF-8"?><svg id="a" xmlns="http://www.w3.org/2000/svg" width="216.72" height="310.34" viewBox="0 0 216.72 310.34"><defs><style>.b{stroke-width:.5px;}.b,.c{fill:none;stroke:#1d1d1b;stroke-miterlimit:10;}.d{fill:#fff;}.e{fill:#ea4c65;}.f{fill:#e7b1ca;}.g{fill:#e0e0e0;}.c{stroke-width:.5px;}.h{fill:#f0849c;}.i{fill:#efeeee;}.j{fill:#1d1d1b;}.k{fill:#ededed;}</style></defs><g><g><path class="g" d="M108.79,137.96c-3.43,1.29-6.71-2.33-4.79-5.27,17.58-26.97,75.79-113.48,97.06-109.62,45.01,8.19-46.54,97.71-92.26,114.89h0Z"/><path class="f" d="M110.46,135.92c-2.73,1.02-5.33-1.85-3.81-4.19,13.96-21.43,60.21-90.17,77.11-87.1,35.76,6.51-36.98,77.63-73.31,91.28h0Z"/><path class="e" d="M110.41,136.14c-1.87,.7-3.66-1.27-2.62-2.88,9.59-14.73,41.37-61.95,52.98-59.84,24.57,4.47-25.4,53.34-50.36,62.72Z"/></g><g><path class="g" d="M77.52,146.52c3.01,2.32,7.41-.06,6.44-3.47C75.02,111.82,44.53,11.06,22.13,7.92-25.26,1.27,37.46,115.57,77.52,146.52Z"/><path class="f" d="M76.51,144.05c2.39,1.85,5.89-.05,5.12-2.75-7.1-24.82-31.33-104.88-49.12-107.37-37.65-5.28,12.18,85.53,44.01,110.13h-.01Z"/><path class="e" d="M76.49,144.28c1.64,1.27,4.05-.03,3.51-1.89-4.88-17.05-21.53-72.05-33.75-73.77-25.87-3.63,8.37,58.76,30.23,75.66h.01Z"/></g><path class="i" d="M150.58,213.41c-37.7,12.33-72.84,17.81-115.11,1.02-8.05-3.2-13.02-11.26-11.28-19.74,2.95-14.36,9.12-36.72,21.09-53.99,10.51-15.16,25.49-26.4,46.69-24.88,46.06,3.29,62.77,56.66,68.03,81.15,1.52,7.08-2.53,14.18-9.42,16.44Z"/><ellipse class="j" cx="69.08" cy="181.78" rx="4.53" ry="5.98"/><circle class="d" cx="71.31" cy="180.62" r="2.23"/><ellipse class="j" cx="115.48" cy="181.78" rx="4.53" ry="5.98"/><circle class="d" cx="117.71" cy="180.62" r="2.23"/><path class="b" d="M92.57,203.59s-5.8,3.87-11.36,.12"/><path class="b" d="M103.93,203.48s-5.68,4.38-11.36,.12"/><path class="h" d="M92.08,200.68c-1.39-.47-4.93-1.96-5.75-5.05-.31-1.16,.64-2.27,1.83-2.11,1.97,.26,5.26,.54,8.82,.15,1.38-.15,2.37,1.31,1.65,2.5-.96,1.61-2.64,3.47-5.48,4.5-.35,.13-.73,.12-1.08,0h.01Z"/><path class="b" d="M122.88,197.14s33.31-19.3,65.13-12.19"/><path class="b" d="M122.88,205.2s38.55-12.76,65.13,3.33"/><path class="b" d="M67,198.33S32.79,179.03,.13,186.14"/><path class="b" d="M67,206.39S27.41,193.63,.13,209.72"/><path class="k" d="M64.55,222.83s-16.66,3.87-18.32,18.46,12.3,2.98,12.3,2.98c0,0-11.91,27.86,0,55.71,0,0-8.33-.66-8.16,6.96,.17,7.63,23.16,0,23.16,0,0,0,19.9,5.97,37.42-.33,0,0,12.54,5.31,20.83,.99,8.29-4.32-1.33-10.94-6.63-7.63,0,0,11.94-25.53-.66-55.38,0,0,12.6,10.28,12.27-2.98s-19.05-19.51-19.05-19.51"/><g><g><path class="g" d="M108.38,138.64c-3.45,1.3-6.81-2.29-4.88-5.28,17.88-26.91,77.02-113.12,98.66-109.24,45.72,8.17-47.35,97.38-93.78,114.52h0Z"/><path class="f" d="M110.01,136.65c-2.74,1-5.39-1.79-3.86-4.19,14.22-21.33,61.17-89.9,78.34-86.81,36.37,6.48-37.49,77.34-74.48,91h0Z"/><path class="e" d="M110.01,136.85c-1.93,.7-3.76-1.3-2.64-2.89,9.75-14.65,42.06-61.79,53.85-59.6,24.89,4.39-25.81,53.12-51.21,62.49Z"/></g><g><path class="g" d="M76.58,147.21c3.05,2.29,7.52-.1,6.5-3.49C74.04,112.63,43.05,12.16,20.29,9.07c-48.16-6.68,15.55,107.24,56.29,138.14Z"/><path class="f" d="M75.56,144.72c2.44,1.89,5.99-.1,5.18-2.79-7.21-24.72-31.8-104.55-49.89-107.04-38.3-5.18,12.4,85.32,44.71,109.83h0Z"/><path class="e" d="M75.56,144.92c1.63,1.3,4.17,0,3.56-1.89-4.98-17.04-21.84-71.76-34.34-73.56-26.21-3.59,8.53,58.6,30.79,75.45h0Z"/></g><path class="i" d="M151.3,212.06c-38.3,12.26-73.97,17.74-116.95,1-8.23-3.19-13.21-11.26-11.48-19.63,2.95-14.35,9.25-36.58,21.44-53.82,10.67-15.15,25.91-26.31,47.45-24.82,46.84,3.29,63.81,56.51,69.09,80.83,1.52,7.08-2.54,14.15-9.55,16.45Z"/><ellipse class="j" cx="68.04" cy="182.3" rx="4.57" ry="5.98"/><ellipse class="d" cx="70.28" cy="181.2" rx="2.24" ry="2.19"/><ellipse class="j" cx="115.19" cy="182.3" rx="4.57" ry="5.98"/><ellipse class="d" cx="117.42" cy="181.2" rx="2.24" ry="2.19"/><path class="c" d="M91.41,200.73s-2.54,3.89-5.89,4.78c-2.34,.6-4.98-.2-7.32-4.68"/><path class="c" d="M104.52,200.73s-7.21,11.06-13.11,.1"/><path class="h" d="M91.41,201.13c-1.42-.5-4.98-1.99-5.89-5.08-.3-1.2,.61-2.29,1.83-2.09,2.03,.3,5.39,.5,8.94,.1,1.42-.1,2.44,1.3,1.73,2.49-1.02,1.59-2.64,3.49-5.59,4.49-.3,.2-.71,.2-1.02,.1h0Z"/><path class="c" d="M122.71,197.65s33.83-19.24,66.14-12.16"/><path class="c" d="M122.71,205.62s39.12-12.76,66.14,3.29"/><path class="c" d="M65.91,198.84s-34.75-19.24-67.97-12.16"/><path class="c" d="M65.91,206.81s-40.24-12.76-67.97,3.29"/><path class="h" d="M96.58,205.53s-5.39,7.08-10.36,0c0,0,2.95-.9,5.59-4.49,0,0,2.24,3.89,4.78,4.49Z"/></g></g><line class="b" x1="92.57" y1="203.59" x2="92.57" y2="201"/></svg>