<?xml version="1.0" encoding="UTF-8"?><svg id="a" xmlns="http://www.w3.org/2000/svg" width="1920" height="1080" viewBox="0 0 1920 1080"><defs><style>.d{fill:#f93;}.e{stroke-miterlimit:10;stroke-width:.78px;}.e,.f{stroke:#000;}.g{fill:#0c3;font-family:Bauhaus93, Bauhaus 93;font-size:79.97px;}.h{fill:#a1a58c;}.f{fill:#000717;stroke-miterlimit:10;stroke-width:.78px;}.i{fill:#060;}</style></defs><path d="M333.82,213.69c4.34-87-.95-112.2,12.85-143.9,14.12-32.58,35.2-41.73,52.37-48.73,47.45-19.36,67.75,9.66,144.33,25.53,25.13,5.21,59.56,12.01,103.48,4.65,39.86-6.7,47.15-18.27,85.58-30.18,70.98-21.99,131.42-8.87,172.45,0,54.52,11.8,72.97,27.22,120.07,20.88,30.27-4.04,90.49-13.19,126.46-11.6,52.3,2.4,38.25,27.85,127.67,30.21,93.14,2.53,103.51-15.17,130.3-11.6,51.08,6.95,26.03,10.34,91.97,25.53,43.68,10.11,84.64-15.72,109.86,20.88,17.83,25.91,17.87,184.69,17.87,208.91,0,41.76,1.36,31.19,6.42,95.14,7.76,98.78,11.63,111.04,10.21,150.87-4.3,121.91-15.53,94.76-10.21,194.96,2.2,41.53-4.05,117.86-38.54,159.65-11.24,13.52-40.48,30.58-80.08,23.63-32.37-5.69-94.55,5.56-125.35,7.05-48.55,2.33-107.34,32.86-164.78,39.46-35.49,4.15-95.05,11.1-159.67,0-84.93-14.58-89.25-44.99-148.19-37.13-45.78,6.09-47.74,25.05-109.84,37.13-61.65,11.98-107.98,2.65-120.09,0-66.55-14.66-62.93-40.44-118.83-53.38-85.43-19.69-128.69,18.53-190.97-19.39-19.13-11.65-43.36-20.75-61.94-94.36-15.9-63.19,3.87-100.3,2.55-271.54-.53-68.25-3.68-65.16-2.55-118.37,1.96-92.59,11.5-101.61,16.6-204.28Z"/><g id="b"><g id="c"><path class="i" d="M1396.39,602.46c3.79-4.09,7.58-8.18,11.37-12.28,2.41,2.2,4.3,4.01,5.43,5.09,6.02,5.8,9.76,9.9,19.64,20.36,4.53,4.79,4.41,4.64,4.53,4.79,.86,1.1,1.12,1.58,1.42,1.5,1.02-.28,.12-6.35,0-15.57-.07-5.63,.24-4.95,.26-14.37,.02-6.86,.03-10.29,0-10.48-.44-3.33-.39-3.87,0-4.79,2.3-5.42,16.4-3.88,17.05-.6,.08,.39-.09,.53-.26,1.8-.29,2.18,.05,3.85,0,4.79-.19,3.82,.09,4.44,.26,10.78,.05,1.94,.17,6.82,0,12.28-.3,9.58-1.27,13.37,0,14.07,1.22,.68,3.44-2.12,5.43-4.49,7.47-8.89,16.69-15.56,24.8-23.66l11.11,10.48s-29.42,31.19-29.45,31.14c-.02-.02,10.07-10.78,10.08-10.78l-10.08,10.78c-2.28-.96-5.42-2.1-9.25-2.95-1.17-.26-3.27-.72-5.73-.95-5.1-.47-12.04-.91-18.6,2.7-2.72,1.49-5.67,3.8-7.49,2.4-.12-.09-.29-.28-.44-.47-1.27-1.56-1.28-3.61-1.36-4.32-.3-2.61-3.53-3.61-7.23-6.29-3.77-2.72-2.43-2.81-9.04-8.68-3.72-3.29-4.91-3.95-7.75-6.89-2.07-2.14-3.64-4.08-4.65-5.39h0Z"/><g><path class="d" d="M1476.4,635.08c-3.33-2.22-5.57-3.71-9.06-4.99-6.51-2.38-12.03-2.07-18.12-1.66-7.27,.48-12.88,.86-19.39,3.74-10.5,4.66-16,12.58-18.33,16.01-1.94,2.84-5.36,7.97-6.74,15.38-.6,3.23-.61,5.8-.21,12.68,.85,14.56,1.68,20.58,1.68,20.58,6.46,46.75,10.11,67.77,10.11,67.77,6.46,37.19,8.76,46.13,11.17,54.26,2.97,10.02,5.82,18.83,9.69,27.86,0,0,1.66,3.87,5.9,9.77,1.41,1.96,2.93,3.86,5.48,4.57,.5,.14,2.15,.58,4,0,1.86-.58,2.95-1.88,3.79-2.91,3.62-4.43,5.43-6.64,5.9-7.48,10.73-19,20.44-73.39,20.44-73.39,4.27-23.94,5.06-26.15,7.16-40.54,2.87-19.61,2.09-21.8,4.43-37.42,1.01-6.74,1.81-10.74,2.53-18.5,.83-9.05,.55-12.41,.42-13.72-.4-3.97-1.05-10.48-5.06-17.25-4.13-6.97-9.75-10.72-15.8-14.76h0Z"/><path class="d" d="M1476.4,635.08c-3.33-2.22-5.57-3.71-9.06-4.99-6.51-2.38-12.03-2.07-18.12-1.66-7.27,.48-12.88,.86-19.39,3.74-10.5,4.66-16,12.58-18.33,16.01-1.94,2.84-5.36,7.97-6.74,15.38-.6,3.23-.61,5.8-.21,12.68,.85,14.56,1.68,20.58,1.68,20.58,6.46,46.75,10.11,67.77,10.11,67.77,6.46,37.19,8.76,46.13,11.17,54.26,2.97,10.02,5.82,18.83,9.69,27.86,0,0,1.66,3.87,5.9,9.77,1.41,1.96,2.93,3.86,5.48,4.57,.5,.14,2.15,.58,4,0,1.86-.58,2.95-1.88,3.79-2.91,3.62-4.43,5.43-6.64,5.9-7.48,10.73-19,20.44-73.39,20.44-73.39,4.27-23.94,5.06-26.15,7.16-40.54,2.87-19.61,2.09-21.8,4.43-37.42,1.01-6.74,1.81-10.74,2.53-18.5,.83-9.05,.55-12.41,.42-13.72-.4-3.97-1.05-10.48-5.06-17.25-4.13-6.97-9.75-10.72-15.8-14.76h0Z"/><path class="d" d="M1476.4,635.08c-3.33-2.22-5.57-3.71-9.06-4.99-6.51-2.38-12.03-2.07-18.12-1.66-7.27,.48-12.88,.86-19.39,3.74-10.5,4.66-16,12.58-18.33,16.01-1.94,2.84-5.36,7.97-6.74,15.38-.6,3.23-.61,5.8-.21,12.68,.85,14.56,1.68,20.58,1.68,20.58,6.46,46.75,10.11,67.77,10.11,67.77,6.46,37.19,8.76,46.13,11.17,54.26,2.97,10.02,5.82,18.83,9.69,27.86,0,0,1.66,3.87,5.9,9.77,1.41,1.96,2.93,3.86,5.48,4.57,.5,.14,2.15,.58,4,0,1.86-.58,2.95-1.88,3.79-2.91,3.62-4.43,5.43-6.64,5.9-7.48,10.73-19,20.44-73.39,20.44-73.39,4.27-23.94,5.06-26.15,7.16-40.54,2.87-19.61,2.09-21.8,4.43-37.42,1.01-6.74,1.81-10.74,2.53-18.5,.83-9.05,.55-12.41,.42-13.72-.4-3.97-1.05-10.48-5.06-17.25-4.13-6.97-9.75-10.72-15.8-14.76h0Z"/><path class="d" d="M1476.4,635.08c-3.33-2.22-5.57-3.71-9.06-4.99-6.51-2.38-12.03-2.07-18.12-1.66-7.27,.48-12.88,.86-19.39,3.74-10.5,4.66-16,12.58-18.33,16.01-1.94,2.84-5.36,7.97-6.74,15.38-.6,3.23-.61,5.8-.21,12.68,.85,14.56,1.68,20.58,1.68,20.58,6.46,46.75,10.11,67.77,10.11,67.77,6.46,37.19,8.76,46.13,11.17,54.26,2.97,10.02,5.82,18.83,9.69,27.86,0,0,1.66,3.87,5.9,9.77,1.41,1.96,2.93,3.86,5.48,4.57,.5,.14,2.15,.58,4,0,1.86-.58,2.95-1.88,3.79-2.91,3.62-4.43,5.43-6.64,5.9-7.48,10.73-19,20.44-73.39,20.44-73.39,4.27-23.94,5.06-26.15,7.16-40.54,2.87-19.61,2.09-21.8,4.43-37.42,1.01-6.74,1.81-10.74,2.53-18.5,.83-9.05,.55-12.41,.42-13.72-.4-3.97-1.05-10.48-5.06-17.25-4.13-6.97-9.75-10.72-15.8-14.76h0Z"/><path class="d" d="M1476.4,635.08c-3.33-2.22-5.57-3.71-9.06-4.99-6.51-2.38-12.03-2.07-18.12-1.66-7.27,.48-12.88,.86-19.39,3.74-10.5,4.66-16,12.58-18.33,16.01-1.94,2.84-5.36,7.97-6.74,15.38-.6,3.23-.61,5.8-.21,12.68,.85,14.56,1.68,20.58,1.68,20.58,6.46,46.75,10.11,67.77,10.11,67.77,6.46,37.19,8.76,46.13,11.17,54.26,2.97,10.02,5.82,18.83,9.69,27.86,0,0,1.66,3.87,5.9,9.77,1.41,1.96,2.93,3.86,5.48,4.57,.5,.14,2.15,.58,4,0,1.86-.58,2.95-1.88,3.79-2.91,3.62-4.43,5.43-6.64,5.9-7.48,10.73-19,20.44-73.39,20.44-73.39,4.27-23.94,5.06-26.15,7.16-40.54,2.87-19.61,2.09-21.8,4.43-37.42,1.01-6.74,1.81-10.74,2.53-18.5,.83-9.05,.55-12.41,.42-13.72-.4-3.97-1.05-10.48-5.06-17.25-4.13-6.97-9.75-10.72-15.8-14.76h0Z"/><path class="d" d="M1476.4,635.08c-3.33-2.22-5.57-3.71-9.06-4.99-6.51-2.38-12.03-2.07-18.12-1.66-7.27,.48-12.88,.86-19.39,3.74-10.5,4.66-16,12.58-18.33,16.01-1.94,2.84-5.36,7.97-6.74,15.38-.6,3.23-.61,5.8-.21,12.68,.85,14.56,1.68,20.58,1.68,20.58,6.46,46.75,10.11,67.77,10.11,67.77,6.46,37.19,8.76,46.13,11.17,54.26,2.97,10.02,5.82,18.83,9.69,27.86,0,0,1.66,3.87,5.9,9.77,1.41,1.96,2.93,3.86,5.48,4.57,.5,.14,2.15,.58,4,0,1.86-.58,2.95-1.88,3.79-2.91,3.62-4.43,5.43-6.64,5.9-7.48,10.73-19,20.44-73.39,20.44-73.39,4.27-23.94,5.06-26.15,7.16-40.54,2.87-19.61,2.09-21.8,4.43-37.42,1.01-6.74,1.81-10.74,2.53-18.5,.83-9.05,.55-12.41,.42-13.72-.4-3.97-1.05-10.48-5.06-17.25-4.13-6.97-9.75-10.72-15.8-14.76h0Z"/></g></g></g><text class="g" transform="translate(538.58 228.29) scale(.57 1)"><tspan x="0" y="0">YOU HAVE 60 SECONDS TO FEED LITTLE BUNNY</tspan><tspan x="0" y="95.97" xml:space="preserve"> WITH THE CARROT . THUS TO WIN YOU HAVE   </tspan><tspan x="0" y="191.93" xml:space="preserve"> TO COLLECT 20 CARROTS . IF UYOU CLICK</tspan><tspan x="0" y="287.9" xml:space="preserve">  ON SNAKE YOU WILL LOOSE ONE OF THE 3</tspan><tspan x="0" y="383.87" xml:space="preserve">         LIVES . IF YOU LOPSE ALL 3 LIVES </tspan><tspan x="0" y="479.84" xml:space="preserve">                THE GAME IS OVER </tspan></text><g><path class="h" d="M655.05,650.72c-.16,1.12,.53,2.4,1.19,3.38l-2.26-1.7c-1.31-.9-3.33-1.86-5.57-.96-2.42,.96-3.01,3.25-6.1,6.77-2.52,2.87-4.69,4.16-9.03,6.77-3.74,2.25-5.61,3.36-7.16,2.9-3.32-1-5.61-5.59-7.16-8.71-1.95-3.9-3-7.95-3.18-8.7-.8-3.14-.52-3.36-1.06-4.84-1.5-4.08-3.74-2.75-7.43-6.28-2.88-2.75-4.7-6.62-5.84-9.02-1.19-2.52-1.89-4.59-2.48-6.28-2.93-8.51-5.69-16.53-9.11-23.53-2.37-4.84-4.09-8.31-7.08-10.95-2.61-2.32-5.24-3.16-6.68-3.63-1.48-.48-3.19-1.01-5.44-.73-.68,.08-2.54,.39-5.04,1.93-2.53,1.57-9.26,5.71-13.4,17.89-1.84,5.42-2.45,10.3-2.78,13.05-.45,3.68-1.63,14.18,.93,25.39,1.68,7.37,4.18,11.54,7.56,17.16,3.75,6.24,7.06,9.66,12.07,14.75,2.9,2.95,6.36,5.91,13.27,11.84,7.68,6.59,8.85,7.33,11.94,10.64,2.83,3.05,5.91,6.4,9.42,12.09,5.72,9.29,8.71,18.55,9.42,20.79,1.16,3.69,3.18,10.83,4.51,20.55,.75,5.5,1.78,15.54,1.06,28.04-.35,6.04-1.05,17.23-4.91,29.49-3.45,10.96-7.68,17.28-10.08,20.79-1.1,1.6-6.42,9.23-14.86,14.51-4.89,3.06-14.23,8.64-25.33,3.87-5.87-2.53-10.12-7.03-11.81-8.95-4.68-5.31-7.56-11.11-8.49-13.05-4.12-8.62-5.95-16.93-6.5-19.58-1.19-5.77-1.61-10.44-1.72-11.85-.75-9.01-.1-16.08,.79-25.37,.73-7.54,.98-6.82,1.86-15.72,1.42-14.4,.99-18.69,.8-20.3-.26-2.22-1.44-12.25-5.17-14.51-1.01-.61-1.91-.4-3.71,0-4.53,1.02-6.8,4.51-7.69,2.9-.58-1.04-.13-3.42,0-4.1,.91-4.83,3.95-6.85,6.1-8.22,3.03-1.94,6.45-4.11,10.08-1.45,3.55,2.6,5.2,8.3,6.24,11.85,3.18,10.92,2.39,22.62,1.86,30.46-.57,8.42-1.35,8.76-1.59,16.68-.21,6.89,.23,11.89,.93,19.59,1.3,14.31,1.95,21.46,3.85,24.89,3.48,6.29,8.94,6.43,12.87,6.53,3,.08,5.28-.76,7.83-1.69,2.74-1,5.39-2.38,11.02-6.28,7.1-4.93,10.66-7.39,12.07-9.19,1.34-1.7,7.97-10.12,9.68-25.37,1.93-17.2-3.75-31.03-5.31-34.81-4.37-10.62-9.76-14.95-17.65-21.27-10.51-8.42-12.54-5.52-22.68-13.78-6.37-5.19-12.29-10-17.77-20.79-7.07-13.89-9.15-29.3-10.35-38.19-1.38-10.18-3.62-27.8,.13-48.35,.68-3.71,3.32-17.19,10.22-29.97,2.12-3.93,8.12-14.23,17.77-20.06,2.49-1.51,7.13-4.23,13.27-4.11,2.31,.04,14.73,.27,24.01,15.95,4.96,8.37,11.43,25.22,12.47,42.55,.16,2.67,.56,11.49,3.98,18.38,.83,1.68,2.63,5.29,4.64,4.83,2.41-.55,2.52-6.33,5.44-11.12,3.26-5.36,8.61-7.16,12.61-4.59,3.41,2.19,5.3,7.26,8.35,15.47,2.94,7.9,3.39,12.45,6.37,16.68,2.15,3.07,3.77,5.36,5.87,5.59,.28,.03,1.51,.14,1.56,.71,.05,.62-1.39,1-1.59,2.41Z"/><path class="h" d="M633.5,629.61h0c3.7,0,6.7,5.47,6.7,12.21h0c0,6.74-3,12.21-6.7,12.21h0c-3.7,0-6.7-5.47-6.7-12.21h0c0-6.74,3-12.21,6.7-12.21Z"/><path d="M631.84,625.75h0c3.67,0,6.64,5.42,6.64,12.1h0c0,6.68-2.97,12.1-6.64,12.1h0c-3.67,0-6.64-5.42-6.64-12.1h0c0-6.68,2.97-12.1,6.64-12.1Z"/><ellipse class="f" cx="593.9" cy="583.69" rx="8.75" ry="10.64"/><ellipse class="f" cx="572.54" cy="571.36" rx="9.95" ry="9.42"/><ellipse class="f" cx="550.12" cy="577.88" rx="10.35" ry="10.15"/><ellipse class="f" cx="539.77" cy="612.21" rx="4.38" ry="15.95"/><ellipse class="f" cx="546.4" cy="667.35" rx="8.75" ry="17.39"/><ellipse class="f" cx="576.26" cy="701.42" rx="10.74" ry="10.39"/><ellipse class="f" cx="611.14" cy="758.22" rx="6.9" ry="12.57"/><ellipse class="f" cx="606.67" cy="801.01" rx="6.06" ry="16.68"/><ellipse class="f" cx="593.9" cy="821.38" rx="6.72" ry="9.36"/><ellipse class="f" cx="576.52" cy="830.74" rx="7.3" ry="8.7"/><ellipse class="f" cx="525.58" cy="716.39" rx="1.46" ry="3.62"/><ellipse class="e" cx="530.4" cy="713.99" rx="1.46" ry="3.53" transform="translate(-77.45 64.67) rotate(-6.5)"/><ellipse cx="536.15" cy="713.24" rx="6.19" ry="1.79" transform="translate(-194.12 1225.96) rotate(-88.14)"/><ellipse cx="541.33" cy="720.92" rx="5.59" ry="1.32" transform="translate(-339.9 911.16) rotate(-65.28)"/><ellipse cx="543.5" cy="737.16" rx="3.5" ry="4.99"/><ellipse cx="543.07" cy="753.16" rx="3.06" ry="5.58"/><ellipse cx="541.31" cy="769.03" rx="3.27" ry="5.62"/><ellipse cx="541.17" cy="789.58" rx="4.08" ry="9.13"/><ellipse cx="544.63" cy="812.25" rx="4.63" ry="7.01"/><ellipse cx="557.05" cy="829.35" rx="9.05" ry="5.75"/><ellipse cx="596.44" cy="718.7" rx="6.63" ry="9.91" transform="translate(-120.31 119.92) rotate(-10.44)"/><ellipse cx="608.36" cy="735.37" rx="3.45" ry="4.47"/><ellipse cx="564.71" cy="682.48" rx="5.17" ry="10.56"/><ellipse cx="556.68" cy="696.22" rx="6.03" ry="5.2"/><ellipse cx="545.88" cy="637.6" rx="2.38" ry="7.98"/><ellipse cx="548.86" cy="597.75" rx="4.28" ry="4.87"/><ellipse cx="602.07" cy="600.97" rx="5.62" ry="6.65"/><ellipse cx="605.17" cy="620.43" rx="2.52" ry="5.31"/><ellipse cx="619.91" cy="646.56" rx="1.86" ry="3.39"/><ellipse cx="626.86" cy="658.27" rx="1.66" ry="3.03"/><ellipse cx="635.03" cy="655.45" rx="1.54" ry="2.8"/><ellipse cx="641.72" cy="645.93" rx="1.53" ry="2.78"/><ellipse cx="641.72" cy="634.81" rx="1.53" ry="2.78"/><ellipse cx="637.94" cy="624.3" rx="2.26" ry="2.41"/><ellipse cx="631.6" cy="618.38" rx="1.89" ry="2.06"/><ellipse cx="625.27" cy="619.1" rx="1.53" ry="2.78"/><ellipse cx="621.52" cy="623.39" rx="1.3" ry="2.36"/><ellipse cx="618.97" cy="636.87" rx=".93" ry="2.9"/><ellipse cx="619.17" cy="628.66" rx="1.06" ry="1.93"/><ellipse cx="610.81" cy="629.56" rx="3.12" ry="5.26"/><ellipse cx="587.56" cy="560.54" rx="2.75" ry="5.02"/><ellipse cx="572.21" cy="549.37" rx="2.99" ry="3.38"/><ellipse cx="579.3" cy="554.44" rx="2.26" ry="4.11"/><ellipse cx="559.94" cy="555.44" rx="5.41" ry="4.51" transform="translate(-200.39 765.1) rotate(-60.19)"/><ellipse cx="550.7" cy="559.79" rx="2.44" ry="3.35"/><ellipse cx="537.94" cy="586.89" rx="3.29" ry="5.99"/><ellipse cx="531.63" cy="607.56" rx="2.04" ry="6.59"/><ellipse cx="532.12" cy="626.23" rx="2.54" ry="5.8"/><ellipse cx="534.03" cy="641.71" rx="3.62" ry="4.84"/><ellipse cx="535.84" cy="651.37" rx="1.81" ry="2.66"/><ellipse cx="539.44" cy="638.08" rx="1.79" ry="7.5"/><ellipse cx="591.71" cy="701.8" rx="3.52" ry="4.93"/><ellipse cx="586.07" cy="712.53" rx="2.12" ry="3.87"/><ellipse cx="601.53" cy="736.83" rx="2.72" ry="7.13"/><ellipse cx="606.96" cy="720.38" rx="2.72" ry="4"/><ellipse cx="615.05" cy="783" rx="8.15" ry="2.37" transform="translate(-239.16 1294.57) rotate(-82.77)"/><ellipse cx="606.63" cy="776.22" rx="1.72" ry="4.23"/><ellipse cx="597.01" cy="804.11" rx="1.79" ry="5.11"/><ellipse cx="588.56" cy="836.29" rx="3.15" ry="3.14"/><ellipse cx="582.09" cy="816.65" rx="3.32" ry="2.59"/><ellipse cx="569.02" cy="819.86" rx="2.05" ry="2.17"/><ellipse cx="568.29" cy="842.35" rx="2.79" ry="5.08"/><ellipse cx="563.52" cy="838.72" rx="1.99" ry="3.63"/><ellipse cx="552.91" cy="819.02" rx="2.26" ry="2.36"/></g></svg>