<?xml version="1.0" encoding="utf-8"?>
<!-- Generator: Adobe Illustrator 26.2.1, SVG Export Plug-In . SVG Version: 6.00 Build 0)  -->
<svg version="1.1" id="Layer_1" xmlns="http://www.w3.org/2000/svg" xmlns:xlink="http://www.w3.org/1999/xlink" x="0px" y="0px"
	 viewBox="0 0 314 665" style="enable-background:new 0 0 314 665;" xml:space="preserve">
<style type="text/css">
	.st0{fill:#35D823;}
	.st1{fill:none;stroke:#191616;stroke-width:5;}
	.st2{fill:#0A0909;}
	.st3{fill:#0B0A0A;}
</style>
<g id="Group_7" transform="translate(-165 -302)">
	<g id="Group_1" transform="translate(-765)">
		<g transform="matrix(1, 0, 0, 1, 930, 302)">
			<g id="Ellipse_1-2" transform="translate(6 6)">
				<ellipse class="st0" cx="157.4" cy="134.5" rx="54.5" ry="56"/>
				<ellipse class="st1" cx="157.4" cy="134.5" rx="52.3" ry="53.8"/>
			</g>
		</g>
		<g id="Polygon_1" transform="matrix(-0.035, 0.999, -0.999, -0.035, 1064.275, 342.799)">
			<path class="st2" d="M118.1-1.1l-32.8,0c-1.7,0-3.2-0.4-4.7-1.2c-1.3-0.7-2.5-1.8-3.4-3.1c-0.9-1.3-1.5-2.8-1.7-4.4
				c-0.2-1.7-0.1-3.3,0.5-5L92.3-63c0.7-2.2,2-3.9,3.8-5.1c1.6-1.1,3.5-1.7,5.5-1.7c2,0,3.9,0.6,5.6,1.7c1.7,1.2,3.1,3,3.8,5.1
				l16.5,48.1c0.6,1.6,0.7,3.3,0.5,5c-0.2,1.6-0.8,3.1-1.7,4.4c-0.9,1.3-2.1,2.4-3.4,3.1C121.3-1.5,119.7-1.1,118.1-1.1z"/>
			<path class="st3" d="M101.6-69.4c-1.9,0-3.8,0.6-5.3,1.6c-1.7,1.1-2.9,2.8-3.6,4.9L76.3-14.7c-0.5,1.6-0.7,3.1-0.4,4.7
				c0.2,1.5,0.8,3,1.6,4.2c0.9,1.3,2,2.3,3.3,3c1.4,0.8,2.9,1.2,4.5,1.2l32.8,0c1.6,0,3.1-0.4,4.5-1.1c1.3-0.7,2.4-1.8,3.3-3
				c0.9-1.3,1.4-2.7,1.6-4.2c0.2-1.6,0.1-3.2-0.4-4.7l-16.5-48.1c-0.7-2.1-2-3.8-3.6-4.9C105.4-68.8,103.5-69.4,101.6-69.4
				 M101.6-70.2c4.1,0,8.1,2.4,9.8,7.2L127.8-15c2.4,7-2.6,14.3-9.7,14.3l-32.8,0c-7.1,0-12.1-7.3-9.8-14.3l16.3-48.1
				C93.5-67.9,97.5-70.3,101.6-70.2z"/>
		</g>
	</g>
</g>
</svg>
