<?xml version="1.0" encoding="utf-8"?>
<!-- Generator: Adobe Illustrator 26.2.1, SVG Export Plug-In . SVG Version: 6.00 Build 0)  -->
<svg version="1.1" id="a" xmlns="http://www.w3.org/2000/svg" xmlns:xlink="http://www.w3.org/1999/xlink" x="0px" y="0px"
	 viewBox="0 0 2224.1 1247.4" style="enable-background:new 0 0 2224.1 1247.4;" xml:space="preserve">
<style type="text/css">
	.st0{fill:#006600;}
	.st1{fill:#FF9933;}
</style>
<g id="b">
	<g>
		<path class="st0" d="M247.8,1026.2c-31.3-33.5-60.1-67-91.5-99.2c15.4-20.9,29.5-36.6,38.5-47.1c43.6-51,75.5-83.6,154.8-167.1
			c37.1-39.1,35.8-36.5,37.1-39.1c8.9-7.8,12.7-10.4,10.2-11.8c-1.2-8-46.8-3.3-116.5-1.7c-41.8-0.6-36.7-3.2-107.6-4.2l-78.5-1.1
			c-24.1,3.6-29.2,3.5-36.7-0.5c-40.3-21.7-27.8-140.6-3.6-146.9c2.5,0,7.2,1,13.9,2.9c15.2,2.9,29.1,0.4,36.7,0.5
			c27.8,3,32.9,0.5,79.8-1.5c13.9,0.2,50.7-1.9,92.4,1.3c70.9,3.7,101.2,12,106.3,1.5c5.1-10.5-14.9-29.3-32.5-48.1
			c-65.2-64.5-115.1-144.5-175.2-215.5l79.4-94.1l231.8,256l-78.9-88.5l78.9,88.5c-7.8,18.4-15.6,47.4-23.5,77.7
			c-1.4,10.6-5.4,29-8.1,50.1c-4.2,43.6-8.6,103.1,20,159.1c9.9,22.6,27.4,50.7,17.1,63.7c0,2.6-1.3,2.6-3.8,3.9
			c-12.7,10.4-28,10.2-33,11.5c-19,2.4-28.1,30-47.5,61.5c-21.9,32.7-21.7,20.8-65.3,77.1c-24.4,30.1-29.5,40.6-52.6,65.4
			c-18,23.6-32,37.9-42.2,45.7l0,0V1026.2z"/>
		<g>
			<path class="st1" d="M493.6,367.8c-18,28.9-28.3,47.2-37.5,77.5c-18.3,55.3-16.2,103-14.2,154.6c3.2,62.2,6.5,111.2,26.2,168.4
				c34.6,91.8,92.3,140.2,118.8,159.1c21.3,17.5,59.1,45.8,114.6,59.8c24,7,43,7.2,96.2,4c110.2-6.4,155.9-12.3,155.9-12.3
				c351.2-50.5,509.8-80,509.8-80c279.1-51.5,346.3-69.1,407.3-89.4c74.9-24.1,142.3-48.2,209.7-80.3c0,0,29.3-14.1,73.9-50.5
				c14-11.7,29.3-24.7,35.9-47.1c1.3-3.9,4-18.5,0.3-35.7c-3.6-17.3-13.7-25.3-22.5-33.4c-32.6-30.9-50.2-48.4-55.2-52.4
				c-142.2-94.6-549-183.9-549-183.9c-179.4-39.6-197.1-46.5-303.3-66.6c-146.6-27.2-163.1-20.9-280.7-41.1
				c-50.6-8.7-79.6-18.3-139-24.5c-68.3-7.6-92.4-5.3-102.5-5.5c-29.2,3.5-78.6,6.8-129.6,41.8C551.6,269.4,523.3,316.6,493.6,367.8
				L493.6,367.8L493.6,367.8z"/>
			<path class="st1" d="M493.6,367.8c-18,28.9-28.3,47.2-37.5,77.5c-18.3,55.3-16.2,103-14.2,154.6c3.2,62.2,6.5,111.2,26.2,168.4
				c34.6,91.8,92.3,140.2,118.8,159.1c21.3,17.5,59.1,45.8,114.6,59.8c24,7,43,7.2,96.2,4c110.2-6.4,155.9-12.3,155.9-12.3
				c351.2-50.5,509.8-80,509.8-80c279.1-51.5,346.3-69.1,407.3-89.4c74.9-24.1,142.3-48.2,209.7-80.3c0,0,29.3-14.1,73.9-50.5
				c14-11.7,29.3-24.7,35.9-47.1c1.3-3.9,4-18.5,0.3-35.7c-3.6-17.3-13.7-25.3-22.5-33.4c-32.6-30.9-50.2-48.4-55.2-52.4
				c-142.2-94.6-549-183.9-549-183.9c-179.4-39.6-197.1-46.5-303.3-66.6c-146.6-27.2-163.1-20.9-280.7-41.1
				c-50.6-8.7-79.6-18.3-139-24.5c-68.3-7.6-92.4-5.3-102.5-5.5c-29.2,3.5-78.6,6.8-129.6,41.8C551.6,269.4,523.3,316.6,493.6,367.8
				L493.6,367.8L493.6,367.8z"/>
			<path class="st1" d="M493.6,367.8c-18,28.9-28.3,47.2-37.5,77.5c-18.3,55.3-16.2,103-14.2,154.6c3.2,62.2,6.5,111.2,26.2,168.4
				c34.6,91.8,92.3,140.2,118.8,159.1c21.3,17.5,59.1,45.8,114.6,59.8c24,7,43,7.2,96.2,4c110.2-6.4,155.9-12.3,155.9-12.3
				c351.2-50.5,509.8-80,509.8-80c279.1-51.5,346.3-69.1,407.3-89.4c74.9-24.1,142.3-48.2,209.7-80.3c0,0,29.3-14.1,73.9-50.5
				c14-11.7,29.3-24.7,35.9-47.1c1.3-3.9,4-18.5,0.3-35.7c-3.6-17.3-13.7-25.3-22.5-33.4c-32.6-30.9-50.2-48.4-55.2-52.4
				c-142.2-94.6-549-183.9-549-183.9c-179.4-39.6-197.1-46.5-303.3-66.6c-146.6-27.2-163.1-20.9-280.7-41.1
				c-50.6-8.7-79.6-18.3-139-24.5c-68.3-7.6-92.4-5.3-102.5-5.5c-29.2,3.5-78.6,6.8-129.6,41.8C551.6,269.4,523.3,316.6,493.6,367.8
				L493.6,367.8L493.6,367.8z"/>
			<path class="st1" d="M493.6,367.8c-18,28.9-28.3,47.2-37.5,77.5c-18.3,55.3-16.2,103-14.2,154.6c3.2,62.2,6.5,111.2,26.2,168.4
				c34.6,91.8,92.3,140.2,118.8,159.1c21.3,17.5,59.1,45.8,114.6,59.8c24,7,43,7.2,96.2,4c110.2-6.4,155.9-12.3,155.9-12.3
				c351.2-50.5,509.8-80,509.8-80c279.1-51.5,346.3-69.1,407.3-89.4c74.9-24.1,142.3-48.2,209.7-80.3c0,0,29.3-14.1,73.9-50.5
				c14-11.7,29.3-24.7,35.9-47.1c1.3-3.9,4-18.5,0.3-35.7c-3.6-17.3-13.7-25.3-22.5-33.4c-32.6-30.9-50.2-48.4-55.2-52.4
				c-142.2-94.6-549-183.9-549-183.9c-179.4-39.6-197.1-46.5-303.3-66.6c-146.6-27.2-163.1-20.9-280.7-41.1
				c-50.6-8.7-79.6-18.3-139-24.5c-68.3-7.6-92.4-5.3-102.5-5.5c-29.2,3.5-78.6,6.8-129.6,41.8C551.6,269.4,523.3,316.6,493.6,367.8
				L493.6,367.8L493.6,367.8z"/>
			<path class="st1" d="M493.6,367.8c-18,28.9-28.3,47.2-37.5,77.5c-18.3,55.3-16.2,103-14.2,154.6c3.2,62.2,6.5,111.2,26.2,168.4
				c34.6,91.8,92.3,140.2,118.8,159.1c21.3,17.5,59.1,45.8,114.6,59.8c24,7,43,7.2,96.2,4c110.2-6.4,155.9-12.3,155.9-12.3
				c351.2-50.5,509.8-80,509.8-80c279.1-51.5,346.3-69.1,407.3-89.4c74.9-24.1,142.3-48.2,209.7-80.3c0,0,29.3-14.1,73.9-50.5
				c14-11.7,29.3-24.7,35.9-47.1c1.3-3.9,4-18.5,0.3-35.7c-3.6-17.3-13.7-25.3-22.5-33.4c-32.6-30.9-50.2-48.4-55.2-52.4
				c-142.2-94.6-549-183.9-549-183.9c-179.4-39.6-197.1-46.5-303.3-66.6c-146.6-27.2-163.1-20.9-280.7-41.1
				c-50.6-8.7-79.6-18.3-139-24.5c-68.3-7.6-92.4-5.3-102.5-5.5c-29.2,3.5-78.6,6.8-129.6,41.8C551.6,269.4,523.3,316.6,493.6,367.8
				L493.6,367.8L493.6,367.8z"/>
			<path class="st1" d="M493.6,367.8c-18,28.9-28.3,47.2-37.5,77.5c-18.3,55.3-16.2,103-14.2,154.6c3.2,62.2,6.5,111.2,26.2,168.4
				c34.6,91.8,92.3,140.2,118.8,159.1c21.3,17.5,59.1,45.8,114.6,59.8c24,7,43,7.2,96.2,4c110.2-6.4,155.9-12.3,155.9-12.3
				c351.2-50.5,509.8-80,509.8-80c279.1-51.5,346.3-69.1,407.3-89.4c74.9-24.1,142.3-48.2,209.7-80.3c0,0,29.3-14.1,73.9-50.5
				c14-11.7,29.3-24.7,35.9-47.1c1.3-3.9,4-18.5,0.3-35.7c-3.6-17.3-13.7-25.3-22.5-33.4c-32.6-30.9-50.2-48.4-55.2-52.4
				c-142.2-94.6-549-183.9-549-183.9c-179.4-39.6-197.1-46.5-303.3-66.6c-146.6-27.2-163.1-20.9-280.7-41.1
				c-50.6-8.7-79.6-18.3-139-24.5c-68.3-7.6-92.4-5.3-102.5-5.5c-29.2,3.5-78.6,6.8-129.6,41.8C551.6,269.4,523.3,316.6,493.6,367.8
				L493.6,367.8L493.6,367.8z"/>
		</g>
	</g>
</g>
</svg>
