<?xml version="1.0" encoding="UTF-8"?><svg id="a" xmlns="http://www.w3.org/2000/svg" width="1920" height="1080" viewBox="0 0 1920 1080"><defs><style>.b{fill:#fff;}.c{fill:#ea4c65;}.d{fill:#e7b1ca;}.e{fill:none;stroke:#1d1d1b;stroke-miterlimit:10;stroke-width:.78px;}.f{fill:#e0e0e0;}.g{fill:#f0849c;}.h{fill:#efeeee;}.i{fill:#1d1d1b;}</style></defs><g><path class="f" d="M762.76,464.77c-5.53,1.97-10.81-3.56-7.72-8.05,28.33-41.19,122.15-173.3,156.43-167.41,72.54,12.51-75.01,149.22-148.69,175.45h-.02Z"/><path class="d" d="M765.46,461.65c-4.4,1.56-8.59-2.83-6.14-6.4,22.5-32.73,97.04-137.7,124.27-133.01,57.63,9.94-59.6,118.55-118.15,139.4l.02,.02Z"/><path class="c" d="M765.37,461.99c-3.01,1.07-5.9-1.94-4.22-4.4,15.46-22.49,66.67-94.61,85.38-91.38,39.6,6.83-40.94,81.46-81.16,95.78Z"/></g><g><path class="f" d="M712.37,477.84c4.85,3.54,11.94-.09,10.38-5.3-14.41-47.69-63.55-201.57-99.65-206.36-76.38-10.16,24.71,164.4,89.27,211.66Z"/><path class="d" d="M710.74,474.07c3.85,2.83,9.49-.08,8.25-4.2-11.44-37.9-50.49-160.17-79.16-163.97-60.68-8.06,19.63,130.62,70.93,168.19l-.02-.02Z"/><path class="c" d="M710.71,474.42c2.64,1.94,6.53-.05,5.66-2.89-7.86-26.04-34.7-110.03-54.39-112.66-41.69-5.54,13.49,89.74,48.72,115.54h.02Z"/></g><path class="h" d="M830.11,579.99c-60.76,18.83-117.39,27.2-185.52,1.56-12.97-4.89-20.98-17.2-18.18-30.15,4.75-21.93,14.7-56.08,33.99-82.45,16.94-23.15,41.08-40.32,75.25-38,74.23,5.02,101.16,86.53,109.64,123.93,2.45,10.81-4.08,21.66-15.18,25.11Z"/><ellipse class="i" cx="698.77" cy="531.69" rx="7.3" ry="9.13"/><ellipse class="b" cx="702.36" cy="529.92" rx="3.59" ry="3.41"/><ellipse class="i" cx="773.55" cy="531.69" rx="7.3" ry="9.13"/><ellipse class="b" cx="777.14" cy="529.92" rx="3.59" ry="3.41"/><path class="e" d="M735.83,559.87s-9.98,0-12.6,10.05"/><path class="e" d="M750.14,569.91s-2.19-10.05-12.83-10.03"/><path class="g" d="M735.83,560.55c-2.24-.72-7.95-2.99-9.27-7.71-.5-1.77,1.03-3.47,2.95-3.22,3.17,.4,8.48,.82,14.21,.23,2.22-.23,3.82,2,2.66,3.82-1.55,2.46-4.25,5.3-8.83,6.87-.56,.2-1.18,.18-1.74,0l.02,.02Z"/><path class="e" d="M785.47,555.15s53.68-29.47,104.97-18.62"/><path class="e" d="M785.47,567.46s62.13-19.49,104.97,5.09"/><path class="e" d="M695.41,556.96s-55.13-29.47-107.77-18.62"/><path class="e" d="M695.41,569.27s-63.8-19.49-107.77,5.09"/></svg>