<?xml version="1.0" encoding="UTF-8"?><svg id="a" xmlns="http://www.w3.org/2000/svg" width="359.54" height="378.22" xmlns:xlink="http://www.w3.org/1999/xlink" viewBox="0 0 359.54 378.22"><defs><style>.f{fill:none;stroke:#1d1d1b;}.f,.g,.h{stroke-miterlimit:10;stroke-width:.5px;}.i{fill:#fff;}.j{fill:#ea4c65;}.k{fill:#e7b1ca;}.g{filter:url(#d);}.g,.h{stroke:#fff;}.g,.h,.l{fill:#ededed;}.m{fill:#f93;}.n{fill:#e0e0e0;}.o{fill:#f0849c;}.p{fill:#efeeee;}.q{fill:#1d1d1b;}.r{fill:#060;}</style><filter id="d" filterUnits="userSpaceOnUse"><feOffset dx="7" dy="7"/><feGaussianBlur result="e" stdDeviation="5"/><feFlood flood-color="#000" flood-opacity=".4"/><feComposite in2="e" operator="in"/><feComposite in="SourceGraphic"/></filter></defs><g><g><path class="n" d="M228.58,163.2c-3.43,1.29-6.71-2.33-4.79-5.27,17.58-26.97,75.79-113.48,97.06-109.62,45.01,8.19-46.54,97.71-92.26,114.89h0Z"/><path class="k" d="M230.25,161.16c-2.73,1.02-5.33-1.85-3.81-4.19,13.96-21.43,60.21-90.17,77.11-87.1,35.76,6.51-36.98,77.63-73.31,91.28h0Z"/><path class="j" d="M230.2,161.38c-1.87,.7-3.66-1.27-2.62-2.88,9.59-14.73,41.37-61.95,52.98-59.84,24.57,4.47-25.4,53.34-50.36,62.72Z"/></g><g><path class="n" d="M197.31,171.76c3.01,2.32,7.41-.06,6.44-3.47-8.94-31.23-39.43-131.99-61.83-135.13-47.39-6.65,15.33,107.65,55.39,138.6Z"/><path class="k" d="M196.3,169.29c2.39,1.85,5.89-.05,5.12-2.75-7.1-24.82-31.33-104.88-49.12-107.37-37.65-5.28,12.18,85.53,44.01,110.13h-.01Z"/><path class="j" d="M196.28,169.52c1.64,1.27,4.05-.03,3.51-1.89-4.88-17.05-21.53-72.05-33.75-73.77-25.87-3.63,8.37,58.76,30.23,75.66h.01Z"/></g><path class="p" d="M270.37,238.65c-37.7,12.33-72.84,17.81-115.11,1.02-8.05-3.2-13.02-11.26-11.28-19.74,2.95-14.36,9.12-36.72,21.09-53.99,10.51-15.16,25.49-26.4,46.69-24.88,46.06,3.29,62.77,56.66,68.03,81.15,1.52,7.08-2.53,14.18-9.42,16.44Z"/><ellipse class="q" cx="188.87" cy="207.02" rx="4.53" ry="5.98"/><circle class="i" cx="191.1" cy="205.86" r="2.23"/><ellipse class="q" cx="235.27" cy="207.02" rx="4.53" ry="5.98"/><circle class="i" cx="237.5" cy="205.86" r="2.23"/><path class="f" d="M211.87,225.47s-2.54,3.88-5.8,4.8c-2.26,.63-4.88-.16-7.25-4.66"/><path class="f" d="M224.79,225.45s-7.14,11.13-12.93,.13"/><path class="o" d="M211.87,225.92c-1.39-.47-4.93-1.96-5.75-5.05-.31-1.16,.64-2.27,1.83-2.11,1.97,.26,5.26,.54,8.82,.15,1.38-.15,2.37,1.31,1.65,2.5-.96,1.61-2.64,3.47-5.48,4.5-.35,.13-.73,.12-1.08,0h.01Z"/><path class="f" d="M242.67,222.38s33.31-19.3,65.13-12.19"/><path class="f" d="M242.67,230.44s38.55-12.76,65.13,3.33"/><path class="f" d="M186.79,223.57s-34.21-19.3-66.87-12.19"/><path class="f" d="M186.79,231.63s-39.59-12.76-66.87,3.33"/><path class="l" d="M188.89,247.04s-21.92,4.22-18.32,18.46c1.33,5.26,12.3,2.98,12.3,2.98,0,0-11.91,27.86,0,55.71,0,0-8.33-.66-8.16,6.96,.17,7.63,23.16,0,23.16,0,0,0,19.9,5.97,37.42-.33,0,0,12.54,5.31,20.83,.99,8.29-4.32-1.33-10.94-6.63-7.63,0,0,11.94-25.53-.66-55.38l-6.78-22.49"/></g><path class="o" d="M216.56,230.36s-5.26,7.11-10.17,0c0,0,2.85-.85,5.53-4.47,0,0,2.16,3.95,4.64,4.47Z"/><g id="b"><g id="c"><path class="r" d="M204.37,242.74c.8-.61,1.6-1.16,2.37-1.77,.51,.29,.9,.56,1.15,.73,1.25,.82,2.05,1.43,4.1,2.93,.96,.7,.9,.68,.96,.7,.19,.17,.26,.24,.29,.19,.19-.02,.06-.9,0-2.23,0-.8,.06-.7,.06-2.06v-1.5c-.1-.46-.1-.56,0-.7,.51-.78,3.39-.56,3.55-.1q0,.07-.06,.27c-.06,.29,0,.56,0,.7-.06,.53,0,.63,.06,1.53,0,.27,.06,.97,0,1.77-.06,1.36-.26,1.94,0,2.04s.7-.29,1.15-.63c1.54-1.26,3.46-2.23,5.15-3.39l2.3,1.5-6.11,4.49,2.11-1.53-2.11,1.53c-.45-.15-1.15-.29-1.89-.44-.26-.02-.7-.1-1.22-.15-1.06-.07-2.5-.15-3.84,.41-.54,.19-1.22,.53-1.54,.34-.06,0-.06-.02-.1-.07-.26-.24-.26-.53-.29-.63-.06-.36-.74-.53-1.5-.9-.8-.41-.51-.41-1.89-1.24-.74-.46-.99-.56-1.6-.99-.58-.34-.93-.61-1.12-.8h0Z"/><g><path class="m" d="M221.04,247.44c-.7-.34-1.15-.53-1.89-.7-1.34-.34-2.5-.29-3.74-.24-1.5,.07-2.69,.15-4.06,.53-2.21,.68-3.36,1.79-3.81,2.3-.42,.41-1.09,1.14-1.41,2.21-.16,.46-.16,.82-.06,1.84,.19,2.11,.35,2.98,.35,2.98,1.34,6.72,2.11,9.75,2.11,9.75,1.34,5.33,1.79,6.62,2.3,7.78,.61,1.43,1.22,2.72,2.02,4,0,0,.35,.56,1.25,1.41,.29,.27,.61,.56,1.15,.68,.1,.02,.45,.07,.86,0s.61-.27,.8-.44c.74-.63,1.15-.97,1.25-1.07,2.24-2.74,4.25-10.55,4.25-10.55,.9-3.44,1.06-3.78,1.5-5.82,.61-2.81,.45-3.13,.9-5.38,.19-.97,.42-1.53,.54-2.67,.16-1.31,.1-1.77,.1-1.96-.1-.56-.19-1.5-1.06-2.47-.96-1.09-2.11-1.62-3.36-2.18h0Z"/><path class="m" d="M221.04,247.44c-.7-.34-1.15-.53-1.89-.7-1.34-.34-2.5-.29-3.74-.24-1.5,.07-2.69,.15-4.06,.53-2.21,.68-3.36,1.79-3.81,2.3-.42,.41-1.09,1.14-1.41,2.21-.16,.46-.16,.82-.06,1.84,.19,2.11,.35,2.98,.35,2.98,1.34,6.72,2.11,9.75,2.11,9.75,1.34,5.33,1.79,6.62,2.3,7.78,.61,1.43,1.22,2.72,2.02,4,0,0,.35,.56,1.25,1.41,.29,.27,.61,.56,1.15,.68,.1,.02,.45,.07,.86,0s.61-.27,.8-.44c.74-.63,1.15-.97,1.25-1.07,2.24-2.74,4.25-10.55,4.25-10.55,.9-3.44,1.06-3.78,1.5-5.82,.61-2.81,.45-3.13,.9-5.38,.19-.97,.42-1.53,.54-2.67,.16-1.31,.1-1.77,.1-1.96-.1-.56-.19-1.5-1.06-2.47-.96-1.09-2.11-1.62-3.36-2.18h0Z"/><path class="m" d="M221.04,247.44c-.7-.34-1.15-.53-1.89-.7-1.34-.34-2.5-.29-3.74-.24-1.5,.07-2.69,.15-4.06,.53-2.21,.68-3.36,1.79-3.81,2.3-.42,.41-1.09,1.14-1.41,2.21-.16,.46-.16,.82-.06,1.84,.19,2.11,.35,2.98,.35,2.98,1.34,6.72,2.11,9.75,2.11,9.75,1.34,5.33,1.79,6.62,2.3,7.78,.61,1.43,1.22,2.72,2.02,4,0,0,.35,.56,1.25,1.41,.29,.27,.61,.56,1.15,.68,.1,.02,.45,.07,.86,0s.61-.27,.8-.44c.74-.63,1.15-.97,1.25-1.07,2.24-2.74,4.25-10.55,4.25-10.55,.9-3.44,1.06-3.78,1.5-5.82,.61-2.81,.45-3.13,.9-5.38,.19-.97,.42-1.53,.54-2.67,.16-1.31,.1-1.77,.1-1.96-.1-.56-.19-1.5-1.06-2.47-.96-1.09-2.11-1.62-3.36-2.18h0Z"/><path class="m" d="M221.04,247.44c-.7-.34-1.15-.53-1.89-.7-1.34-.34-2.5-.29-3.74-.24-1.5,.07-2.69,.15-4.06,.53-2.21,.68-3.36,1.79-3.81,2.3-.42,.41-1.09,1.14-1.41,2.21-.16,.46-.16,.82-.06,1.84,.19,2.11,.35,2.98,.35,2.98,1.34,6.72,2.11,9.75,2.11,9.75,1.34,5.33,1.79,6.62,2.3,7.78,.61,1.43,1.22,2.72,2.02,4,0,0,.35,.56,1.25,1.41,.29,.27,.61,.56,1.15,.68,.1,.02,.45,.07,.86,0s.61-.27,.8-.44c.74-.63,1.15-.97,1.25-1.07,2.24-2.74,4.25-10.55,4.25-10.55,.9-3.44,1.06-3.78,1.5-5.82,.61-2.81,.45-3.13,.9-5.38,.19-.97,.42-1.53,.54-2.67,.16-1.31,.1-1.77,.1-1.96-.1-.56-.19-1.5-1.06-2.47-.96-1.09-2.11-1.62-3.36-2.18h0Z"/><path class="m" d="M221.04,247.44c-.7-.34-1.15-.53-1.89-.7-1.34-.34-2.5-.29-3.74-.24-1.5,.07-2.69,.15-4.06,.53-2.21,.68-3.36,1.79-3.81,2.3-.42,.41-1.09,1.14-1.41,2.21-.16,.46-.16,.82-.06,1.84,.19,2.11,.35,2.98,.35,2.98,1.34,6.72,2.11,9.75,2.11,9.75,1.34,5.33,1.79,6.62,2.3,7.78,.61,1.43,1.22,2.72,2.02,4,0,0,.35,.56,1.25,1.41,.29,.27,.61,.56,1.15,.68,.1,.02,.45,.07,.86,0s.61-.27,.8-.44c.74-.63,1.15-.97,1.25-1.07,2.24-2.74,4.25-10.55,4.25-10.55,.9-3.44,1.06-3.78,1.5-5.82,.61-2.81,.45-3.13,.9-5.38,.19-.97,.42-1.53,.54-2.67,.16-1.31,.1-1.77,.1-1.96-.1-.56-.19-1.5-1.06-2.47-.96-1.09-2.11-1.62-3.36-2.18h0Z"/><path class="m" d="M221.04,247.44c-.7-.34-1.15-.53-1.89-.7-1.34-.34-2.5-.29-3.74-.24-1.5,.07-2.69,.15-4.06,.53-2.21,.68-3.36,1.79-3.81,2.3-.42,.41-1.09,1.14-1.41,2.21-.16,.46-.16,.82-.06,1.84,.19,2.11,.35,2.98,.35,2.98,1.34,6.72,2.11,9.75,2.11,9.75,1.34,5.33,1.79,6.62,2.3,7.78,.61,1.43,1.22,2.72,2.02,4,0,0,.35,.56,1.25,1.41,.29,.27,.61,.56,1.15,.68,.1,.02,.45,.07,.86,0s.61-.27,.8-.44c.74-.63,1.15-.97,1.25-1.07,2.24-2.74,4.25-10.55,4.25-10.55,.9-3.44,1.06-3.78,1.5-5.82,.61-2.81,.45-3.13,.9-5.38,.19-.97,.42-1.53,.54-2.67,.16-1.31,.1-1.77,.1-1.96-.1-.56-.19-1.5-1.06-2.47-.96-1.09-2.11-1.62-3.36-2.18h0Z"/></g></g></g><path class="h" d="M171.16,267.22c4.95,4.28,9.01,5.12,11.62,5.2,6.38,.18,14.3-3.94,18.34-5.2,1.93-.6,3.94-1.2,3.94-1.2,0,0,.03,0,.07-.02,.09-.03,.17-.08,.19-.1,.11-.09-.17,0,0,0,.52-.01,9.33-2.94,9.29-3.31-.02-.18-.18,.22,0,0,3.39-4.11-8.23-.81-9.5-.23-.25,.12-.15,.45,0,0,.08-.25,9.72-2.05,10.8-2.9,3.05-2.45-7.11-2.29-7.47-2.16-.71,.26,8.5-.16,8.77-.21,4.78-.92,.23-2.6,.23-2.6,2.37-.76-8.01,.52-7.76,.76,.07,.07,11.92-1.17,9.13-5.2-.81-1.17-3.06,.65-6.99,1.64-5.72,1.44-6.9,2.79-10.24,3.29-.94,.14-1.7,.19-3.21,.28-3.91,.25-5.66,0-10.24,.1-.88,.02-2.29,.06-4.05,.15"/><path class="g" d="M246.17,245.14c2.11,1.55,5.54,4.57,7.64,9.48,1.14,2.67,2.38,5.55,1.22,8.25-1.62,3.8-7.13,5.34-11.01,5.2-2.55-.09-8.52-1.06-13.45-3.67-.41-.22-2.35-1.26-3.06-.61-.71,.65,.61,2.25-.31,3.67-.69,1.06-2.41,1.67-2.54,1.71-.1,.03-.19,.05-.19,.05-.16,.04-.33,.07-.33,.07h0c-.16,1.43-1.19,2.55-2.45,2.75-1.06,.17-2.16-.33-2.7-1.07-.45-.61-.24-.99-.66-1.38-.66-.61-1.73-.16-3.06,0-1.32,.16-3.83,.15-4.89-.92-1.24-1.24-.73-4.14,.31-6.11,1.88-3.59,5.51-4.17,13.15-7.34,2.52-1.04,6.13-2.64,10.39-4.89"/></svg>