<?xml version="1.0" encoding="utf-8"?>
<!-- Generator: Adobe Illustrator 26.2.1, SVG Export Plug-In . SVG Version: 6.00 Build 0)  -->
<svg version="1.1" id="Layer_1" xmlns="http://www.w3.org/2000/svg" xmlns:xlink="http://www.w3.org/1999/xlink" x="0px" y="0px"
	 viewBox="0 0 213.2 302.7" style="enable-background:new 0 0 213.2 302.7;" xml:space="preserve">
<style type="text/css">
	.st0{fill:#E0E0E0;}
	.st1{fill:#E7B1CA;}
	.st2{fill:#EA4C65;}
	.st3{fill:#EFEEEE;}
	.st4{fill:#1D1D1B;}
	.st5{fill:#FFFFFF;}
	.st6{fill:none;stroke:#1D1D1B;stroke-width:0.4473;stroke-miterlimit:10;}
	.st7{fill:#F0849C;}
	.st8{fill:#EDEDED;}
</style>
<g id="Livello_1">
</g>
<g id="Livello_2">
	<g id="Livello_1-2">
		<g>
			<g>
				<path class="st0" d="M105.2,139.8c-3.1,1.1-6.1-2-4.4-4.6c16-23.7,69.1-99.7,88.5-96.3C230.4,46.1,146.9,124.7,105.2,139.8
					L105.2,139.8z"/>
				<path class="st1" d="M106.8,138c-2.5,0.9-4.9-1.6-3.5-3.7c12.7-18.8,54.9-79.2,70.3-76.5C206.2,63.5,139.9,126,106.8,138
					L106.8,138z"/>
				<path class="st2" d="M106.7,138.2c-1.7,0.6-3.3-1.1-2.4-2.5c8.7-12.9,37.7-54.4,48.3-52.5C175,87,129.5,129.9,106.7,138.2z"/>
			</g>
			<g>
				<path class="st0" d="M76.7,147.3c2.7,2,6.8-0.1,5.9-3C74.5,116.8,46.7,28.4,26.3,25.6C-16.9,19.8,40.2,120.1,76.7,147.3z"/>
				<path class="st1" d="M75.8,145.1c2.2,1.6,5.4,0,4.7-2.4C74,120.9,51.9,50.6,35.7,48.4C1.4,43.8,46.8,123.5,75.8,145.1
					L75.8,145.1z"/>
				<path class="st2" d="M75.8,145.3c1.5,1.1,3.7,0,3.2-1.7c-4.4-15-19.6-63.3-30.8-64.8C24.7,75.7,55.9,130.5,75.8,145.3
					L75.8,145.3z"/>
			</g>
			<path class="st3" d="M143.3,206C109,216.9,77,221.7,38.4,206.9c-7.3-2.8-11.9-9.9-10.3-17.3c2.7-12.6,8.3-32.2,19.2-47.4
				c9.6-13.3,23.2-23.2,42.5-21.8c42,2.9,57.2,49.8,62,71.3C153.3,197.8,149.6,204.1,143.3,206z"/>
			<ellipse class="st4" cx="69.1" cy="178.3" rx="4.1" ry="5.3"/>
			<ellipse class="st5" cx="71.1" cy="177.2" rx="2" ry="2"/>
			<ellipse class="st4" cx="111.3" cy="178.3" rx="4.1" ry="5.3"/>
			<ellipse class="st5" cx="113.4" cy="177.2" rx="2" ry="2"/>
			<path class="st6" d="M90.5,197.4c0,0-5.3,3.4-10.4,0.1"/>
			<path class="st6" d="M100.8,197.3c0,0-5.2,3.8-10.4,0.1"/>
			<path class="st7" d="M90,194.9c-1.3-0.4-4.5-1.7-5.2-4.4c-0.3-1,0.6-2,1.7-1.9c1.8,0.2,4.8,0.5,8,0.1c1.3-0.1,2.2,1.2,1.5,2.2
				c-0.9,1.4-2.4,3-5,4C90.7,195,90.3,195,90,194.9L90,194.9z"/>
			<path class="st6" d="M118.1,191.8c0,0,30.4-16.9,59.4-10.7"/>
			<path class="st6" d="M118.1,198.8c0,0,35.1-11.2,59.4,2.9"/>
			<path class="st6" d="M67.2,192.8c0,0-31.2-16.9-60.9-10.7"/>
			<path class="st6" d="M67.2,199.9c0,0-36.1-11.2-60.9,2.9"/>
			<path class="st8" d="M64.9,214.3c0,0-15.2,3.4-16.7,16.2c-1.5,12.8,11.2,2.6,11.2,2.6s-10.9,24.5,0,48.9c0,0-7.6-0.6-7.4,6.1
				c0.2,6.7,21.1,0,21.1,0s18.1,5.2,34.1-0.3c0,0,11.4,4.7,19,0.9c7.6-3.8-1.2-9.6-6-6.7c0,0,10.9-22.4-0.6-48.6
				c0,0,11.5,9,11.2-2.6c-0.3-11.6-17.4-17.1-17.4-17.1"/>
		</g>
		<line class="st6" x1="90.5" y1="197.4" x2="90.5" y2="195.1"/>
	</g>
</g>
</svg>
