<?xml version="1.0" encoding="UTF-8"?><svg id="a" xmlns="http://www.w3.org/2000/svg" width="127.64" height="118.62" viewBox="0 0 127.64 118.62"><defs><style>.b{fill:#3c0;stroke:#231f20;stroke-linecap:round;stroke-miterlimit:10;stroke-width:3px;}</style></defs><ellipse class="b" cx="59.95" cy="65.67" rx="32.08" ry="31.4"/><g><path d="M64.06,54.12l.03-.35c.02-.27,0-.55-.1-.81l-.09,1.12,.16,.04Z"/><path d="M60.53,81.55c8.08-.27,14.72-5.95,15.25-13.02v-.3c-.34-6.13-5.12-11.35-11.81-12.88l.1-1.23-.16-.04,.09-1.12c-.41-1.23-1.86-1.92-3.24-1.56-.14,.04-.27,.08-.39,.14l-9,3.86c-.74,.31-1.27,.93-1.41,1.65,.19,.43,.51,.8,.94,1.05l3.29,1.99,5,3c1.2,.72,2.83,.44,3.65-.62,.25-.33,.4-.71,.44-1.1l.19-2.21c4.16,1.34,6.87,4.92,6.7,8.86,.52,5-3.62,9.42-9.25,9.88-5.62,.46-10.6-3.22-11.12-8.22-.02-.19-.03-.38-.04-.57-.03-.18-.07-.36-.08-.55-.13-.25-.41-.42-.72-.42h-3.98c-.45,0-.82,.32-.83,.72h0c0,.33,0,.66,.04,.99,1.36,7.01,8.36,12.02,16.36,11.72Z"/></g></svg>