<svg xmlns="http://www.w3.org/2000/svg" xmlns:xlink="http://www.w3.org/1999/xlink" width="433.924" height="444.954" viewBox="0 0 433.924 444.954">
  <defs>
    <filter id="Path_9" x="0" y="0" width="433.924" height="444.954" filterUnits="userSpaceOnUse">
      <feOffset dx="3" dy="3" input="SourceAlpha"/>
      <feGaussianBlur stdDeviation="3" result="blur"/>
      <feFlood flood-opacity="0.161"/>
      <feComposite operator="in" in2="blur"/>
      <feComposite in="SourceGraphic"/>
    </filter>
  </defs>
  <g id="Group_13" data-name="Group 13" transform="translate(-381 -415)">
    <g id="Group_5" data-name="Group 5" transform="translate(387 421)">
      <g transform="matrix(1, 0, 0, 1, -6, -6)" filter="url(#Path_9)">
        <g id="Path_9-2" data-name="Path 9" transform="translate(6 6)" fill="#35d823">
          <path d="M 207.9620819091797 414.4545288085938 C 100.183952331543 414.4545288085938 12.50001525878906 324.2965087890625 12.50001525878906 213.4772491455078 C 12.50001525878906 102.6579818725586 100.183952331543 12.4999828338623 207.9620819091797 12.4999828338623 C 315.7402038574219 12.4999828338623 403.4241638183594 102.6579818725586 403.4241638183594 213.4772491455078 C 403.4241638183594 324.2965087890625 315.7402038574219 414.4545288085938 207.9620819091797 414.4545288085938 Z" stroke="none"/>
          <path d="M 207.9620819091797 25.00003051757812 C 107.0764770507812 25.00003051757812 25 109.5505676269531 25 213.4772491455078 C 25 317.4039306640625 107.0764770507812 401.9544677734375 207.9620819091797 401.9544677734375 C 308.8476867675781 401.9544677734375 390.9241638183594 317.4039306640625 390.9241638183594 213.4772491455078 C 390.9241638183594 109.5505676269531 308.8476867675781 25.00003051757812 207.9620819091797 25.00003051757812 M 207.9620819091797 3.0517578125e-05 C 322.81640625 3.0517578125e-05 415.9241638183594 95.5770263671875 415.9241638183594 213.4772491455078 C 415.9241638183594 331.3774108886719 322.81640625 426.9544677734375 207.9620819091797 426.9544677734375 C 93.10784912109375 426.9544677734375 0 331.3774108886719 0 213.4772491455078 C 0 95.5770263671875 93.10784912109375 3.0517578125e-05 207.9620819091797 3.0517578125e-05 Z" stroke="none" fill="#191616"/>
        </g>
      </g>
    </g>
    <line id="Line_7" data-name="Line 7" transform="translate(480.871 509.646)" fill="none" stroke="#707070" stroke-width="1"/>
    <path id="Path_1" data-name="Path 1" d="M408.64,425.234c-.563,1.121-1.869,87.349-1.869,87.349h0s-2.833.916,6.266,0,39.959,0,39.959,0l100.526,70.083V326.158L453,422.983S409.2,424.113,408.64,425.234Z" transform="translate(33.75 170.114)" fill="none" stroke="#070707" stroke-width="25"/>
    <path id="Path_4" data-name="Path 4" d="M.907,0S146.745,53.671.145,159.389" transform="matrix(0.999, -0.035, 0.035, 0.999, 607.415, 540.707)" fill="none" stroke="#030303" stroke-width="25"/>
    <path id="Path_5" data-name="Path 5" d="M458.5,358.519s178.4,86.156,0,252.059" transform="translate(197.323 137.753)" fill="none" stroke="#030303" stroke-width="25"/>
  </g>
</svg>
