<?xml version="1.0" encoding="UTF-8"?><svg id="a" xmlns="http://www.w3.org/2000/svg" width="1920" height="1080" xmlns:xlink="http://www.w3.org/1999/xlink" viewBox="0 0 1920 1080"><defs><style>.e{fill:#fff;}.f{fill:#ea4c65;}.g{fill:#e7b1ca;}.h,.i{fill:#f93;}.j{fill:#e0e0e0;}.k{filter:url(#b);}.i{font-family:Bauhaus93, Bauhaus 93;font-size:96.76px;}.l{fill:#6ff;}.m{fill:none;stroke:#1d1d1b;}.m,.n{stroke-miterlimit:10;stroke-width:.4px;}.o{fill:#3c0;}.p{fill:#f0849c;}.q{fill:#090;}.r{fill:#efeeee;}.s{fill:#fc0;}.n{stroke:#fff;}.n,.t{fill:#ededed;}.u{fill:#1d1d1b;}.v{fill:#060;}</style><filter id="b" x="-15%" y="-15%" width="140%" height="130%"><feGaussianBlur in="SourceAlpha" result="blur" stdDeviation="6"/><feOffset dx="8" dy="8" in="blur" result="offsetBlurredAlpha"/><feMerge><feMergeNode in="offsetBlurredAlpha"/><feMergeNode in="SourceGraphic"/></feMerge></filter></defs><text class="i" transform="translate(484.79 601.88) scale(.49 1)"><tspan x="0" y="0">The Little Bunny</tspan><tspan x="0" y="116.12" xml:space="preserve">                 Carrot Lover</tspan></text><g><path class="l" d="M-43.91-20.16c-12.01,.14-21.72,9.84-21.86,21.86l-.84,74.85-.99,87.89-2.99,265.82-1.23,109.46c-.22,19.23,22.53,29.55,36.86,16.72l47.66-42.7,161.84-138.97c.55-.47,1.11-.91,1.7-1.32l52.76-37.02c.32-.22,.65-.44,.98-.65l54.89-34.32c1.25-.78,2.57-1.43,3.94-1.95l52.75-19.83c2.21-.83,4.53-1.3,6.88-1.4l53.67-2.17c3.24-.13,6.47,.45,9.46,1.71l67.87,28.51c.53,.22,1.04,.46,1.55,.72l56.3,28.97c1.83,.94,3.53,2.14,5.03,3.55l113.95,107.12c1.01,.95,2.1,1.8,3.27,2.54l56.41,35.93c2.32,1.48,4.91,2.51,7.61,3.05l26.7,5.25c2.56,.5,5.19,.55,7.77,.14l67.68-10.86c2.19-.35,4.32-1.03,6.3-2.02l27.12-13.42c1.1-.54,2.15-1.18,3.14-1.89l97.08-70.11c1.51-1.09,2.87-2.36,4.06-3.8l63.65-76.61c.49-.59,1.02-1.16,1.57-1.7l48.41-47.23c2.62-2.55,5.82-4.42,9.34-5.42l60.11-17.27c4.15-1.19,8.56-1.14,12.68,.14l28.29,8.82c.71,.22,1.4,.47,2.08,.76l80.26,34.16c1,.43,1.97,.92,2.89,1.49l124.61,76.36c.35,.21,.69,.44,1.03,.67l98.74,68.3,14.57,10.72c2.11,1.55,4.47,2.72,6.99,3.44l44.18,12.72c1.59,.46,3.22,.73,4.87,.83l40.64,2.3c2.79,.16,5.59-.22,8.25-1.1l29.21-9.75c9.72-3.24,15.94-12.74,15.02-22.95l-3.04-33.97c-.13-1.49-.12-2.99,.05-4.47l4.8-42.23c.51-4.51,2.4-8.75,5.4-12.15l12.15-13.74c4.25-4.81,10.39-7.54,16.81-7.46l15.82,.18c3.71,.04,7.34,1.01,10.58,2.83l108.07,60.68,107.99,67.45c2.56,1.6,5.41,2.65,8.39,3.11h0c13.56,2.06,25.71-8.6,25.43-22.31l-9.2-449.35c-.25-12.13-10.23-21.79-22.36-21.66L-43.91-20.16Z"/><circle class="s" cx="804.58" cy="376.8" r="99.95"/><path class="q" d="M-31.5,526.57c0-3.24,1.4-6.32,3.83-8.45C309.75,222.83,379.13,187.92,520.4,263.47c141.8,75.83,172.4,228.47,361.13,134.92,188.73-93.56,202.44-334.32,374.39-169.38,173.58,166.5,246.7,250.15,340.73,165.44,89.85-80.95,34.85-170.95,150.98-111.28,139.64,71.74,199.02,116.18,216.06,128.87,3.29,2.45,4.98,6.48,4.42,10.54l-39.33,284.28c-.87,6.32-6.84,10.64-13.11,9.5l-3.73-.67c-.72-.13-1.45-.19-2.18-.18L-20.28,747h0c-6.2,0-11.22-5.02-11.22-11.22v-209.2Z"/><g class="k"><path class="o" d="M0,744s1031-207,1477-123,444,84,444,84l-1,370H1L0,744Z"/></g><image transform="translate(1240 218) scale(.16 .22)" xlink:href="../tshirt/R (3).png"/></g><text class="i" transform="translate(360.75 597.05) scale(.49 1)"><tspan x="0" y="0">The Little Bunny</tspan><tspan x="0" y="116.12" xml:space="preserve">                 Carrot Lover</tspan></text><g><g><g><path class="j" d="M778.54,527.24c-2.94,.95-5.75-1.71-4.11-3.87,15.07-19.79,64.96-83.29,83.18-80.46,38.58,6.01-39.89,71.71-79.07,84.32h0Z"/><path class="g" d="M779.97,525.75c-2.34,.75-4.57-1.36-3.27-3.08,11.96-15.73,51.6-66.18,66.09-63.93,30.65,4.78-31.69,56.98-62.83,66.99h0Z"/><path class="f" d="M779.92,525.91c-1.6,.51-3.14-.93-2.25-2.11,8.22-10.81,35.46-45.47,45.41-43.92,21.06,3.28-21.77,39.15-43.16,46.03Z"/></g><g><path class="j" d="M751.74,533.53c2.58,1.7,6.35-.04,5.52-2.55-7.66-22.92-33.79-96.87-52.99-99.18-40.62-4.88,13.14,79.01,47.47,101.72Z"/><path class="g" d="M750.87,531.71c2.05,1.36,5.05-.04,4.39-2.02-6.08-18.22-26.85-76.98-42.1-78.8-32.27-3.88,10.44,62.77,37.72,80.83h0Z"/><path class="f" d="M750.85,531.88c1.41,.93,3.47-.02,3.01-1.39-4.18-12.51-18.45-52.88-28.93-54.14-22.17-2.66,7.17,43.13,25.91,55.53h0Z"/></g><path class="r" d="M814.35,582.62c-32.31,9.05-62.43,13.07-98.65,.75-6.9-2.35-11.16-8.26-9.67-14.49,2.53-10.54,7.82-26.95,18.07-39.63,9.01-11.13,21.85-19.38,40.02-18.26,39.48,2.41,53.8,41.59,58.3,59.56,1.3,5.2-2.17,10.41-8.07,12.07h0Z"/><ellipse class="u" cx="744.5" cy="559.41" rx="3.88" ry="4.39"/><ellipse class="e" cx="746.41" cy="558.55" rx="1.91" ry="1.64"/><ellipse class="u" cx="784.27" cy="559.41" rx="3.88" ry="4.39"/><ellipse class="e" cx="786.18" cy="558.55" rx="1.91" ry="1.64"/><path class="m" d="M764.21,572.95s-2.18,2.85-4.97,3.52c-1.94,.46-4.18-.12-6.21-3.42"/><path class="m" d="M775.29,572.93s-6.12,8.17-11.08,.1"/><path class="p" d="M764.21,573.28c-1.19-.34-4.23-1.44-4.93-3.71-.27-.85,.55-1.67,1.57-1.55,1.69,.19,4.51,.4,7.56,.11,1.18-.11,2.03,.96,1.41,1.83-.82,1.18-2.26,2.55-4.7,3.3-.3,.1-.63,.09-.93,0h0Z"/><path class="m" d="M790.61,570.68s28.55-14.17,55.82-8.95"/><path class="m" d="M790.61,576.6s33.04-9.37,55.82,2.44"/><path class="m" d="M742.72,571.55s-29.32-14.17-57.31-8.95"/><path class="m" d="M742.72,577.47s-33.93-9.37-57.31,2.44"/><path class="t" d="M744.52,588.78s-18.79,3.1-15.7,13.55c1.14,3.86,10.54,2.19,10.54,2.19,0,0-10.21,20.45,0,40.89,0,0-7.14-.48-6.99,5.11,.15,5.6,19.85,0,19.85,0,0,0,17.06,4.38,32.07-.24,0,0,10.75,3.9,17.85,.73,7.1-3.17-1.14-8.03-5.68-5.6,0,0,10.23-18.74-.57-40.65l-5.81-16.51"/></g><path class="p" d="M768.23,576.54s-4.51,5.22-8.72,0c0,0,2.44-.62,4.74-3.28,0,0,1.85,2.9,3.98,3.28Z"/><g id="c"><g id="d"><path class="v" d="M757.79,585.62c.69-.45,1.37-.85,2.03-1.3,.44,.21,.77,.41,.99,.54,1.07,.6,1.76,1.05,3.51,2.15,.82,.51,.77,.5,.82,.51,.16,.12,.22,.18,.25,.14,.16-.01,.05-.66,0-1.64,0-.59,.05-.51,.05-1.51v-1.1c-.09-.34-.09-.41,0-.51,.44-.57,2.91-.41,3.04-.07,0,.03-.02,.1-.05,.2-.05,.21,0,.41,0,.51-.05,.39,0,.46,.05,1.12,0,.2,.05,.71,0,1.3-.05,1-.22,1.42,0,1.5s.6-.21,.99-.46c1.32-.92,2.97-1.64,4.41-2.49l1.97,1.1-5.24,3.3,1.81-1.12-1.81,1.12c-.39-.11-.99-.21-1.62-.32-.22-.01-.6-.07-1.05-.11-.91-.05-2.14-.11-3.29,.3-.46,.14-1.05,.39-1.32,.25-.05,0-.05-.01-.09-.05-.22-.18-.22-.39-.25-.46-.05-.26-.63-.39-1.29-.66-.69-.3-.44-.3-1.62-.91-.63-.34-.85-.41-1.37-.73-.5-.25-.8-.45-.96-.59h.02Z"/><g><path class="h" d="M772.07,589.07c-.6-.25-.99-.39-1.62-.51-1.15-.25-2.14-.21-3.21-.18-1.29,.05-2.31,.11-3.48,.39-1.89,.5-2.88,1.31-3.27,1.69-.36,.3-.93,.84-1.21,1.62-.14,.34-.14,.6-.05,1.35,.16,1.55,.3,2.19,.3,2.19,1.15,4.93,1.81,7.16,1.81,7.16,1.15,3.91,1.53,4.86,1.97,5.71,.52,1.05,1.05,2,1.73,2.94,0,0,.3,.41,1.07,1.03,.25,.2,.52,.41,.99,.5,.09,.01,.39,.05,.74,0s.52-.2,.69-.32c.63-.46,.99-.71,1.07-.79,1.92-2.01,3.64-7.74,3.64-7.74,.77-2.52,.91-2.77,1.29-4.27,.52-2.06,.39-2.3,.77-3.95,.16-.71,.36-1.12,.46-1.96,.14-.96,.09-1.3,.09-1.44-.09-.41-.16-1.1-.91-1.81-.82-.8-1.81-1.19-2.88-1.6h0Z"/><path class="h" d="M772.07,589.07c-.6-.25-.99-.39-1.62-.51-1.15-.25-2.14-.21-3.21-.18-1.29,.05-2.31,.11-3.48,.39-1.89,.5-2.88,1.31-3.27,1.69-.36,.3-.93,.84-1.21,1.62-.14,.34-.14,.6-.05,1.35,.16,1.55,.3,2.19,.3,2.19,1.15,4.93,1.81,7.16,1.81,7.16,1.15,3.91,1.53,4.86,1.97,5.71,.52,1.05,1.05,2,1.73,2.94,0,0,.3,.41,1.07,1.03,.25,.2,.52,.41,.99,.5,.09,.01,.39,.05,.74,0s.52-.2,.69-.32c.63-.46,.99-.71,1.07-.79,1.92-2.01,3.64-7.74,3.64-7.74,.77-2.52,.91-2.77,1.29-4.27,.52-2.06,.39-2.3,.77-3.95,.16-.71,.36-1.12,.46-1.96,.14-.96,.09-1.3,.09-1.44-.09-.41-.16-1.1-.91-1.81-.82-.8-1.81-1.19-2.88-1.6h0Z"/><path class="h" d="M772.07,589.07c-.6-.25-.99-.39-1.62-.51-1.15-.25-2.14-.21-3.21-.18-1.29,.05-2.31,.11-3.48,.39-1.89,.5-2.88,1.31-3.27,1.69-.36,.3-.93,.84-1.21,1.62-.14,.34-.14,.6-.05,1.35,.16,1.55,.3,2.19,.3,2.19,1.15,4.93,1.81,7.16,1.81,7.16,1.15,3.91,1.53,4.86,1.97,5.71,.52,1.05,1.05,2,1.73,2.94,0,0,.3,.41,1.07,1.03,.25,.2,.52,.41,.99,.5,.09,.01,.39,.05,.74,0s.52-.2,.69-.32c.63-.46,.99-.71,1.07-.79,1.92-2.01,3.64-7.74,3.64-7.74,.77-2.52,.91-2.77,1.29-4.27,.52-2.06,.39-2.3,.77-3.95,.16-.71,.36-1.12,.46-1.96,.14-.96,.09-1.3,.09-1.44-.09-.41-.16-1.1-.91-1.81-.82-.8-1.81-1.19-2.88-1.6h0Z"/><path class="h" d="M772.07,589.07c-.6-.25-.99-.39-1.62-.51-1.15-.25-2.14-.21-3.21-.18-1.29,.05-2.31,.11-3.48,.39-1.89,.5-2.88,1.31-3.27,1.69-.36,.3-.93,.84-1.21,1.62-.14,.34-.14,.6-.05,1.35,.16,1.55,.3,2.19,.3,2.19,1.15,4.93,1.81,7.16,1.81,7.16,1.15,3.91,1.53,4.86,1.97,5.71,.52,1.05,1.05,2,1.73,2.94,0,0,.3,.41,1.07,1.03,.25,.2,.52,.41,.99,.5,.09,.01,.39,.05,.74,0s.52-.2,.69-.32c.63-.46,.99-.71,1.07-.79,1.92-2.01,3.64-7.74,3.64-7.74,.77-2.52,.91-2.77,1.29-4.27,.52-2.06,.39-2.3,.77-3.95,.16-.71,.36-1.12,.46-1.96,.14-.96,.09-1.3,.09-1.44-.09-.41-.16-1.1-.91-1.81-.82-.8-1.81-1.19-2.88-1.6h0Z"/><path class="h" d="M772.07,589.07c-.6-.25-.99-.39-1.62-.51-1.15-.25-2.14-.21-3.21-.18-1.29,.05-2.31,.11-3.48,.39-1.89,.5-2.88,1.31-3.27,1.69-.36,.3-.93,.84-1.21,1.62-.14,.34-.14,.6-.05,1.35,.16,1.55,.3,2.19,.3,2.19,1.15,4.93,1.81,7.16,1.81,7.16,1.15,3.91,1.53,4.86,1.97,5.71,.52,1.05,1.05,2,1.73,2.94,0,0,.3,.41,1.07,1.03,.25,.2,.52,.41,.99,.5,.09,.01,.39,.05,.74,0s.52-.2,.69-.32c.63-.46,.99-.71,1.07-.79,1.92-2.01,3.64-7.74,3.64-7.74,.77-2.52,.91-2.77,1.29-4.27,.52-2.06,.39-2.3,.77-3.95,.16-.71,.36-1.12,.46-1.96,.14-.96,.09-1.3,.09-1.44-.09-.41-.16-1.1-.91-1.81-.82-.8-1.81-1.19-2.88-1.6h0Z"/><path class="h" d="M772.07,589.07c-.6-.25-.99-.39-1.62-.51-1.15-.25-2.14-.21-3.21-.18-1.29,.05-2.31,.11-3.48,.39-1.89,.5-2.88,1.31-3.27,1.69-.36,.3-.93,.84-1.21,1.62-.14,.34-.14,.6-.05,1.35,.16,1.55,.3,2.19,.3,2.19,1.15,4.93,1.81,7.16,1.81,7.16,1.15,3.91,1.53,4.86,1.97,5.71,.52,1.05,1.05,2,1.73,2.94,0,0,.3,.41,1.07,1.03,.25,.2,.52,.41,.99,.5,.09,.01,.39,.05,.74,0s.52-.2,.69-.32c.63-.46,.99-.71,1.07-.79,1.92-2.01,3.64-7.74,3.64-7.74,.77-2.52,.91-2.77,1.29-4.27,.52-2.06,.39-2.3,.77-3.95,.16-.71,.36-1.12,.46-1.96,.14-.96,.09-1.3,.09-1.44-.09-.41-.16-1.1-.91-1.81-.82-.8-1.81-1.19-2.88-1.6h0Z"/></g></g></g><path class="n" d="M729.32,603.59c4.24,3.14,7.72,3.76,9.96,3.82,5.47,.13,12.26-2.89,15.72-3.82,1.65-.44,3.38-.88,3.38-.88,0,0,.03,0,.06-.01,.08-.02,.15-.06,.16-.07,.09-.07-.15,0,0,0,.45,0,8-2.16,7.96-2.43-.02-.13-.15,.16,0,0,2.91-3.02-7.05-.59-8.14-.17-.21,.09-.13,.33,0,0,.07-.18,8.33-1.5,9.26-2.13,2.61-1.8-6.09-1.68-6.4-1.59-.61,.19,7.28-.12,7.52-.15,4.1-.68,.2-1.91,.2-1.91,2.03-.56-6.86,.38-6.65,.56,.06,.05,10.22-.86,7.82-3.82-.69-.86-2.62,.48-5.99,1.2-4.9,1.06-5.91,2.05-8.78,2.41-.81,.1-1.46,.14-2.75,.21-3.35,.18-4.85,0-8.78,.07-.75,.01-1.96,.04-3.47,.11"/><path class="n" d="M793.61,587.38c1.81,1.14,4.75,3.35,6.55,6.96,.98,1.96,2.04,4.07,1.05,6.06-1.39,2.79-6.11,3.92-9.44,3.82-2.19-.07-7.3-.78-11.53-2.69-.35-.16-2.01-.92-2.62-.45-.61,.48,.52,1.65-.27,2.69-.59,.78-2.07,1.23-2.18,1.26-.09,.02-.16,.04-.16,.04-.14,.03-.28,.05-.28,.05h0c-.14,1.05-1.02,1.87-2.1,2.02-.91,.12-1.85-.24-2.31-.79-.39-.45-.21-.73-.57-1.01-.57-.45-1.48-.12-2.62,0-1.13,.12-3.28,.11-4.19-.68-1.06-.91-.63-3.04,.27-4.48,1.61-2.63,4.72-3.06,11.27-5.39,2.16-.76,5.25-1.94,8.9-3.59"/></g></svg>